<svg width="579" height="386" viewBox="0 0 579 386" fill="none" xmlns="http://www.w3.org/2000/svg">
<path d="M482.161 50.3375H438.349V132.935H482.161V50.3375Z" fill="#E6E6E6"/>
<path d="M480.012 50.3375H428.547V132.935H480.012V50.3375Z" fill="#F0F0F0"/>
<path d="M472.164 57.6738H436.368V125.597H472.164V57.6738Z" fill="white"/>
<path d="M461.672 77.9319H447.755V104.332H461.672V77.9319Z" fill="#EBEBEB"/>
<path d="M139.355 50.3375H95.5427V132.935H139.355V50.3375Z" fill="#E6E6E6"/>
<path d="M137.206 50.3375H85.7406V132.935H137.206V50.3375Z" fill="#F0F0F0"/>
<path d="M129.359 57.6738H93.5625V125.597H129.359V57.6738Z" fill="white"/>
<path d="M118.866 77.9319H104.949V104.332H118.866V77.9319Z" fill="#EBEBEB"/>
<path d="M520.123 248.844H380.587C378.092 248.844 376.061 246.814 376.061 244.319V41.072C376.061 38.5769 378.092 36.5465 380.587 36.5465H520.123C522.618 36.5465 524.648 38.5761 524.648 41.072V244.319C524.648 246.815 522.618 248.844 520.123 248.844ZM380.587 36.7395C378.197 36.7395 376.254 38.6826 376.254 41.072V244.319C376.254 246.708 378.198 248.651 380.587 248.651H520.123C522.512 248.651 524.455 246.707 524.455 244.319V41.072C524.455 38.6834 522.511 36.7395 520.123 36.7395H380.587Z" fill="#E0E0E0"/>
<path d="M359.216 248.844H219.68C217.185 248.844 215.155 246.814 215.155 244.319V41.072C215.155 38.5769 217.184 36.5465 219.68 36.5465H359.217C361.712 36.5465 363.743 38.5761 363.743 41.072V244.319C363.742 246.815 361.711 248.844 359.216 248.844ZM219.68 36.7395C217.292 36.7395 215.348 38.6826 215.348 41.072V244.319C215.348 246.708 217.292 248.651 219.68 248.651H359.217C361.606 248.651 363.55 246.707 363.55 244.319V41.072C363.55 38.6834 361.606 36.7395 359.217 36.7395H219.68Z" fill="#E0E0E0"/>
<path d="M198.413 248.844H58.8774C56.3823 248.844 54.3519 246.814 54.3519 244.319V41.072C54.3519 38.5769 56.3815 36.5465 58.8774 36.5465H198.413C200.908 36.5465 202.939 38.5761 202.939 41.072V244.319C202.94 246.815 200.909 248.844 198.413 248.844ZM58.8774 36.7395C56.4888 36.7395 54.5449 38.6826 54.5449 41.072V244.319C54.5449 246.708 56.4888 248.651 58.8774 248.651H198.413C200.803 248.651 202.746 246.707 202.746 244.319V41.072C202.746 38.6834 200.802 36.7395 198.413 36.7395H58.8774Z" fill="#E0E0E0"/>
<path d="M579 295.99H0V296.083H579V295.99Z" fill="#E0E0E0"/>
<path d="M547.622 318.668H504.599V318.993H547.622V318.668Z" fill="#EBEBEB"/>
<path d="M393.466 322.193H382.174V322.518H393.466V322.193Z" fill="#EBEBEB"/>
<path d="M87.4823 308.789H31.3779V309.114H87.4823V308.789Z" fill="#EBEBEB"/>
<path d="M107.273 308.789H99.0469V309.114H107.273V308.789Z" fill="#EBEBEB"/>
<path d="M255.686 314.273H134.008V314.598H255.686V314.273Z" fill="#EBEBEB"/>
<path d="M184.107 85.8735C182.171 88.8202 180.87 92.0572 180.176 95.3969L174.859 95.8979L174.858 106.196L180.176 106.697C180.869 110.036 182.171 113.273 184.107 116.221L180.71 120.323L187.992 127.606L192.094 124.209C195.042 126.145 198.279 127.446 201.617 128.139L202.117 133.457L212.416 133.456L212.917 128.139C216.256 127.446 219.493 126.144 222.44 124.209L226.543 127.605L233.825 120.322L230.429 116.22C232.364 113.273 233.665 110.036 234.358 106.697L239.676 106.196L239.677 95.8979L234.359 95.3969C233.666 92.0588 232.364 88.8218 230.429 85.875L233.825 81.7726L226.543 74.4904L222.44 77.8864C219.493 75.951 216.256 74.6486 212.918 73.9561L212.417 68.6378L202.118 68.6386L201.618 73.9569C198.28 74.6502 195.043 75.951 192.095 77.8864L187.992 74.4896L180.71 81.7719L184.107 85.8735ZM217.127 91.1887C222.571 96.6329 222.571 105.461 217.127 110.906C211.682 116.351 202.854 116.35 197.41 110.906C191.965 105.461 191.966 96.6336 197.41 91.1887C202.854 85.7446 211.681 85.7446 217.127 91.1887Z" fill="#EBEBEB"/>
<path d="M204.202 210.102C203.234 211.575 202.584 213.193 202.238 214.862L199.58 215.112V220.259L202.238 220.509C202.584 222.177 203.234 223.795 204.202 225.268L202.504 227.319L206.144 230.959L208.194 229.261C209.667 230.228 211.286 230.879 212.954 231.225L213.204 233.883H218.351L218.601 231.226C220.269 230.879 221.887 230.228 223.36 229.262L225.411 230.959L229.051 227.319L227.353 225.269C228.32 223.796 228.971 222.178 229.317 220.51L231.974 220.259V215.113L229.316 214.862C228.97 213.194 228.319 211.576 227.352 210.103L229.05 208.053L225.41 204.413L223.36 206.111C221.887 205.144 220.269 204.493 218.6 204.147L218.35 201.489H213.203L212.953 204.147C211.285 204.494 209.667 205.144 208.194 206.111L206.143 204.413L202.503 208.053L204.202 210.102ZM220.705 212.759C223.425 215.48 223.426 219.892 220.705 222.612C217.983 225.334 213.571 225.334 210.851 222.612C208.13 219.891 208.13 215.48 210.851 212.759C213.572 210.037 217.983 210.037 220.705 212.759Z" fill="#EBEBEB"/>
<path d="M57.4823 156.378C55.9545 158.704 54.927 161.259 54.3797 163.895L50.1815 164.29V172.42L54.3797 172.815C54.9262 175.451 55.9545 178.005 57.4816 180.333L54.8004 183.572L60.5495 189.32L63.788 186.639C66.1148 188.167 68.6701 189.194 71.305 189.741L71.7002 193.939L79.8302 193.938L80.2254 189.741C82.861 189.193 85.4164 188.166 87.7432 186.638L90.9817 189.319L96.7308 183.571L94.0496 180.332C95.5767 178.005 96.6042 175.45 97.1515 172.815L101.349 172.42L101.35 164.29L97.1515 163.894C96.6042 161.259 95.5767 158.704 94.0489 156.377L96.73 153.139L90.9817 147.39L87.7432 150.071C85.4164 148.544 82.861 147.516 80.2262 146.969L79.8309 142.771H71.701L71.3058 146.969C68.6701 147.516 66.1156 148.543 63.7888 150.071L60.5503 147.39L54.8012 153.139L57.4823 156.378ZM83.5481 160.573C87.8451 164.871 87.8459 171.84 83.5481 176.137C79.2496 180.436 72.2816 180.435 67.9838 176.137C63.6861 171.84 63.6861 164.871 67.9838 160.573C72.2816 156.276 79.2496 156.275 83.5481 160.573Z" fill="#EBEBEB"/>
<path d="M499.398 139.766C498.683 140.854 498.202 142.051 497.946 143.284L495.981 143.469V147.274L497.946 147.46C498.202 148.693 498.683 149.889 499.398 150.978L498.143 152.494L500.833 155.184L502.349 153.93C503.438 154.645 504.634 155.126 505.867 155.381L506.052 157.346H509.857L510.043 155.381C511.276 155.125 512.472 154.644 513.561 153.929L515.077 155.184L517.767 152.493L516.513 150.978C517.228 149.888 517.709 148.693 517.965 147.459L519.93 147.274V143.468L517.965 143.283C517.709 142.05 517.228 140.854 516.513 139.765L517.767 138.249L515.077 135.559L513.561 136.814C512.472 136.099 511.276 135.618 510.043 135.362L509.858 133.397H506.053L505.868 135.362C504.634 135.618 503.438 136.098 502.35 136.814L500.833 135.559L498.143 138.249L499.398 139.766ZM511.598 141.729C513.609 143.741 513.609 147.002 511.598 149.014C509.586 151.026 506.325 151.026 504.314 149.014C502.302 147.002 502.303 143.741 504.314 141.729C506.325 139.718 509.586 139.718 511.598 141.729Z" fill="#EBEBEB"/>
<path d="M354.302 92.1768C353.587 93.2653 353.106 94.4619 352.849 95.6948L350.885 95.8801V99.6853L352.849 99.8705C353.106 101.104 353.587 102.3 354.302 103.389L353.046 104.905L355.737 107.595L357.252 106.34C358.342 107.055 359.537 107.536 360.77 107.792L360.955 109.757H364.761L364.946 107.792C366.18 107.536 367.375 107.055 368.465 106.34L369.98 107.595L372.671 104.905L371.416 103.389C372.131 102.3 372.612 101.104 372.868 99.8713L374.833 99.686V95.8808L372.868 95.6956C372.612 94.4619 372.131 93.2661 371.416 92.1776L372.671 90.6613L369.98 87.9709L368.465 89.2262C367.375 88.5113 366.18 88.0304 364.947 87.7741L364.761 85.8093H360.956L360.771 87.7741C359.537 88.0304 358.342 88.5106 357.253 89.2262L355.737 87.9709L353.046 90.6613L354.302 92.1768ZM366.501 94.1407C368.512 96.1526 368.513 99.4135 366.501 101.425C364.489 103.437 361.227 103.437 359.216 101.425C357.204 99.4135 357.205 96.1526 359.216 94.1407C361.228 92.1289 364.49 92.1289 366.501 94.1407Z" fill="#F5F5F5"/>
<path d="M99.6466 201.386C98.9317 202.475 98.4508 203.671 98.1945 204.905L96.2297 205.09V208.896L98.1945 209.081C98.4508 210.314 98.9317 211.51 99.6466 212.6L98.3913 214.115L101.082 216.805L102.597 215.55C103.686 216.265 104.882 216.746 106.115 217.002L106.3 218.967H110.106L110.291 217.002C111.525 216.746 112.72 216.265 113.81 215.55L115.325 216.805L118.016 214.115L116.76 212.599C117.475 211.51 117.956 210.314 118.212 209.081L120.177 208.896V205.09L118.212 204.905C117.956 203.671 117.475 202.476 116.76 201.387L118.016 199.871L115.325 197.18L113.81 198.435C112.72 197.72 111.525 197.239 110.292 196.983L110.106 195.018H106.301L106.116 196.983C104.882 197.239 103.686 197.719 102.598 198.435L101.082 197.18L98.3913 199.87L99.6466 201.386ZM111.847 203.35C113.858 205.362 113.858 208.624 111.847 210.635C109.835 212.647 106.573 212.647 104.562 210.635C102.55 208.623 102.55 205.362 104.562 203.35C106.573 201.339 109.835 201.338 111.847 203.35Z" fill="#F5F5F5"/>
<path d="M443.896 155.113C442.667 156.984 441.841 159.039 441.401 161.16L438.024 161.478V168.017L441.402 168.335C441.842 170.455 442.669 172.51 443.897 174.382L441.74 176.987L446.364 181.611L448.969 179.455C450.84 180.684 452.896 181.51 455.016 181.95L455.334 185.326L461.874 185.326L462.192 181.95C464.312 181.51 466.368 180.683 468.239 179.455L470.844 181.611L475.468 176.987L473.311 174.382C474.539 172.511 475.366 170.455 475.806 168.335L479.182 168.017L479.183 161.478L475.806 161.16C475.366 159.04 474.539 156.985 473.31 155.113L475.467 152.509L470.843 147.884L468.238 150.041C466.366 148.812 464.311 147.985 462.191 147.545L461.873 144.169H455.333L455.015 147.545C452.895 147.985 450.84 148.812 448.969 150.041L446.364 147.884L441.74 152.508L443.896 155.113ZM464.863 158.488C468.319 161.945 468.32 167.55 464.863 171.007C461.405 174.464 455.8 174.464 452.343 171.007C448.886 167.55 448.886 161.946 452.343 158.488C455.8 155.031 461.405 155.031 464.863 158.488Z" fill="#EBEBEB"/>
<path d="M313.927 191.778C312.689 193.664 311.856 195.735 311.412 197.872L308.009 198.192V204.783L311.412 205.103C311.856 207.24 312.689 209.311 313.928 211.198L311.754 213.823L316.413 218.483L319.039 216.31C320.925 217.548 322.996 218.381 325.133 218.824L325.454 222.228L332.044 222.227L332.364 218.824C334.501 218.38 336.573 217.547 338.459 216.309L341.084 218.482L345.745 213.822L343.572 211.197C344.81 209.311 345.643 207.24 346.086 205.103L349.489 204.782L349.49 198.192L346.087 197.871C345.643 195.734 344.81 193.663 343.572 191.777L345.745 189.152L341.085 184.492L338.459 186.665C336.573 185.427 334.501 184.593 332.365 184.15L332.045 180.747H325.454L325.134 184.15C322.998 184.594 320.926 185.426 319.04 186.665L316.414 184.491L311.754 189.152L313.927 191.778ZM335.057 195.179C338.541 198.663 338.541 204.312 335.057 207.796C331.573 211.28 325.924 211.28 322.44 207.796C318.956 204.312 318.956 198.663 322.44 195.179C325.924 191.695 331.573 191.695 335.057 195.179Z" fill="#EBEBEB"/>
<path d="M333.242 253.897C331.164 257.061 329.767 260.538 329.022 264.124L323.311 264.662L323.31 275.721L329.022 276.259C329.766 279.845 331.163 283.321 333.242 286.486L329.595 290.892L337.415 298.712L341.821 295.065C344.986 297.143 348.462 298.541 352.047 299.284L352.586 304.996L363.645 304.995L364.183 299.284C367.769 298.539 371.246 297.142 374.411 295.064L378.817 298.712L386.638 290.891L382.99 286.485C385.068 283.32 386.466 279.844 387.21 276.259L392.92 275.721L392.921 264.661L387.211 264.123C386.466 260.538 385.068 257.062 382.99 253.897L386.638 249.491L378.817 241.671L374.412 245.318C371.246 243.24 367.769 241.841 364.185 241.098L363.647 235.387L352.587 235.387L352.049 241.099C348.464 241.843 344.988 243.24 341.822 245.319L337.417 241.672L329.596 249.493L333.242 253.897ZM368.703 259.604C374.549 265.451 374.549 274.932 368.703 280.778C362.855 286.625 353.375 286.625 347.528 280.778C341.681 274.931 341.682 265.451 347.528 259.604C353.376 253.759 362.855 253.758 368.703 259.604Z" fill="#EBEBEB"/>
<path d="M540.796 346.16C540.796 348.775 431.743 350.894 297.22 350.894C162.697 350.894 53.6439 348.775 53.6439 346.16C53.6439 343.545 162.697 341.426 297.22 341.426C431.743 341.426 540.796 343.545 540.796 346.16Z" fill="#F5F5F5"/>
<path d="M90.3858 211.648C76.3076 228.116 72.1959 252.492 80.0935 272.666C88.8681 264.835 95.0471 252.897 95.4378 242.456C95.8292 232.015 93.0963 221.738 90.3858 211.648Z" fill="#0F9D58"/>
<path d="M87.9293 274.569C83.1521 281.888 80.8662 290.802 81.5294 299.516C89.1397 296.866 95.8492 288.269 99.8713 281.287C103.893 274.304 106.142 266.46 108.189 258.666C99.9447 261.568 92.7064 267.249 87.9293 274.569Z" fill="#0F9D58"/>
<path d="M86.1738 240.406C80.5181 260.731 77.637 281.813 77.654 302.911C77.6586 308.914 77.9018 314.914 78.3712 320.897C78.4005 321.266 78.9795 321.269 78.9502 320.897C77.3012 299.854 78.5248 278.604 82.611 257.894C83.7613 252.065 85.1401 246.283 86.7327 240.561C86.8323 240.201 86.2742 240.047 86.1738 240.406Z" fill="#263238"/>
<path d="M78.5295 306.401C84.3071 292.647 91.9036 279.762 100.684 267.718C100.904 267.416 100.401 267.127 100.183 267.425C93.3102 276.854 87.1342 286.793 82.0235 297.288C80.5884 300.235 79.2405 303.225 77.9713 306.247C77.827 306.591 78.3874 306.74 78.5295 306.401Z" fill="#263238"/>
<path d="M70.3354 285.973C74.3189 292.077 76.225 299.509 75.6722 306.776C69.3264 304.566 63.7317 297.398 60.3782 291.576C57.0238 285.753 55.1486 279.214 53.4425 272.714C60.3164 275.133 66.3519 279.871 70.3354 285.973Z" fill="#0F9D58"/>
<path d="M78.3573 311.592C73.618 300.316 67.3547 289.864 60.1589 279.994C59.9412 279.696 59.4386 279.984 59.6587 280.285C66.822 290.111 73.0806 300.52 77.7991 311.745C77.9412 312.084 78.5024 311.935 78.3573 311.592Z" fill="#263238"/>
<path d="M78.5804 315.337C87.5356 306.123 96.68 297.096 105.635 287.883C105.895 287.616 105.486 287.206 105.226 287.473C96.2708 296.687 87.1265 305.714 78.1713 314.927C77.9111 315.194 78.3195 315.604 78.5804 315.337Z" fill="#263238"/>
<path d="M105.972 283.65C98.2022 291.143 91.123 299.351 84.8544 308.138H86.2756C92.1891 307.861 97.9297 304.944 101.64 300.33C105.35 295.718 106.968 289.485 105.972 283.65Z" fill="#0F9D58"/>
<path d="M69.1928 265.78C72.5286 271.236 75.6722 276.807 78.6166 282.483C78.788 282.815 79.2883 282.522 79.1169 282.191C76.1725 276.514 73.0289 270.943 69.6931 265.488C69.4985 265.17 68.9975 265.461 69.1928 265.78Z" fill="#263238"/>
<path d="M61.1479 238.235C59.8756 243.957 58.6134 251.399 58.601 257.358C58.5879 263.317 60.406 269.131 63.7927 273.124C67.1795 277.118 74.0148 278.867 76.77 276.581L61.1479 238.235Z" fill="#0F9D58"/>
<path d="M94.9136 317.997H60.9734V324.287H94.9136V317.997Z" fill="#263238"/>
<path d="M89.417 346.696H68.3414L64.5115 322.846H92.4424L89.417 346.696Z" fill="#263238"/>
<path opacity="0.2" d="M64.7616 324.404H92.2448L91.9028 327.104H65.1955L64.7616 324.404Z" fill="black"/>
<path d="M490.355 182.06C498.93 177.157 509.855 180.133 514.757 188.708C519.66 197.282 516.684 208.208 508.11 213.11C501.49 216.895 493.48 215.968 487.911 211.41L482.605 212.244L483.867 206.711C483.816 206.625 483.757 206.548 483.707 206.461C478.805 197.888 481.781 186.963 490.355 182.06Z" fill="#0F9D58"/>
<path d="M493.533 178.096C487.823 179.195 482.798 183.356 480.652 188.76" stroke="#0F9D58" stroke-width="0.5" stroke-miterlimit="10" stroke-linecap="round" stroke-linejoin="round"/>
<path d="M479.756 191.274C479.369 192.071 479.149 192.95 479.113 193.836" stroke="#0F9D58" stroke-width="0.5" stroke-miterlimit="10" stroke-linecap="round" stroke-linejoin="round"/>
<path d="M497.136 204.344L489.587 197.455L491.991 194.821L497.053 199.441L505.464 191.227L507.955 193.779L497.136 204.344Z" fill="white"/>
<path d="M306.157 67.8649C315.165 62.6307 326.711 65.6894 331.945 74.6979C337.179 83.7056 334.121 95.2516 325.112 100.486C318.158 104.526 309.703 103.608 303.795 98.8414L298.204 99.7608L299.495 93.9153C299.441 93.8249 299.378 93.7439 299.324 93.6528C294.09 84.6451 297.15 73.099 306.157 67.8649Z" fill="#0F9D58"/>
<path d="M331.978 70.3554C328.314 65.437 322.056 62.5729 315.939 63.0145" stroke="#0F9D58" stroke-width="0.5" stroke-miterlimit="10" stroke-linecap="round" stroke-linejoin="round"/>
<path d="M313.141 63.3163C312.205 63.314 311.27 63.5078 310.412 63.8814" stroke="#0F9D58" stroke-width="0.5" stroke-miterlimit="10" stroke-linecap="round" stroke-linejoin="round"/>
<path d="M323.815 81.4637H306.194V85.8688H323.815V81.4637Z" fill="white"/>
<path d="M322.186 88.2666V79.3662L326.526 83.8168L322.186 88.2666Z" fill="white"/>
<path d="M421.572 179.912C421.572 179.912 421.104 187.998 417.155 202.168C414.678 210.924 411.671 219.521 408.153 227.913C406.183 232.654 403.923 237.686 401.328 242.979C400.161 245.386 398.911 247.834 397.598 250.346C396.087 293.23 372.019 336.824 372.019 336.824C370.686 337.512 366.028 336.761 366.059 335.407C369.623 329.749 376.635 274.799 381.156 248.731C381.437 245.188 381.844 241.438 382.344 237.468C383.667 226.945 385.626 215.505 387.553 205.44C390.543 189.582 393.388 177.152 393.388 177.152L401.317 177.924L421.572 179.912Z" fill="#EEC1BB"/>
<path d="M371.759 346.075H370.404L370.019 344.367L365.435 346.451H353.818C353.818 346.451 351.973 344.596 357.495 343.127C357.765 343.05 358.026 342.95 358.277 342.825C361.225 341.439 365.414 336.772 365.414 336.772H371.78C371.977 337.068 372.151 337.378 372.301 337.699C372.999 339.074 374.197 342.054 371.759 346.075Z" fill="#263238"/>
<path d="M372.301 337.678C371.467 336.74 367.643 340.855 364.841 342.262C362.341 343.501 359.527 344.053 358.277 342.793C361.225 341.407 366.476 334.922 366.476 334.922L370.978 335.375C370.978 335.375 372.009 337.074 372.301 337.678Z" fill="#EEC1BB"/>
<path d="M431.033 239.28C430.394 243.892 429.571 248.827 428.563 254.085C437.16 282.769 419.478 338.751 419.478 338.751C416.488 339.344 413.841 338.959 412.497 337.948C415.832 321.08 413.435 277.226 410.841 251.022C410.611 248.647 410.32 246.031 410.007 243.239C409.476 238.509 408.84 233.299 408.163 227.912C407.016 218.9 405.735 209.418 404.578 201.01C403.162 190.852 401.932 182.256 401.296 177.932C401.035 176.036 400.88 174.963 400.88 174.963L425.698 177.651C425.698 177.651 432.012 184.726 432.991 206.824C433.315 217.68 432.66 228.542 431.033 239.28Z" fill="#EEC1BB"/>
<path d="M420.093 346.075H418.707L418.322 344.367L413.748 346.45H402.141C402.141 346.45 400.297 344.596 405.829 343.127C406.098 343.05 406.36 342.949 406.61 342.825C409.548 341.439 413.747 336.772 413.747 336.772H420.113C420.305 337.071 420.479 337.38 420.634 337.699C421.333 339.074 422.5 342.054 420.093 346.075Z" fill="#263238"/>
<path d="M420.635 337.678C419.791 336.74 415.967 340.855 413.164 342.262C410.664 343.501 407.851 344.053 406.611 342.793C409.549 341.407 414.186 335.375 414.186 335.375H419.302C419.302 335.375 420.332 337.074 420.635 337.678Z" fill="#EEC1BB"/>
<path d="M437.55 117.593C436.276 116.492 434.217 116.914 432.464 116.708C429.804 116.395 427.66 114.473 426.515 112.293C425.371 110.112 425.037 107.672 424.629 105.289C424.222 102.905 423.694 100.464 422.234 98.4416C420.773 96.419 417.255 93.9115 414.699 95.4455L411.276 100.75C413.33 106.965 415.001 113.283 416.277 119.663C416.847 122.513 417.413 125.526 419.482 127.746C421.508 129.92 424.716 130.98 427.863 131.183C429.459 131.286 431.11 131.184 432.568 130.592C434.026 129.999 435.268 128.856 435.591 127.448C435.914 126.04 435.138 124.414 433.655 123.875C435.087 123.271 436.576 122.625 437.531 121.49C438.484 120.356 438.691 118.578 437.55 117.593Z" fill="#263238"/>
<path d="M388.519 91.1933C384.607 94.9792 384.113 99.4854 384.734 102.569C386.048 106.648 388.037 109.342 389.904 113.199L396.531 86.7203C394.036 87.7054 392.774 87.3866 388.519 91.1933Z" fill="#263238"/>
<path d="M400.321 86.5652C407.959 86.7204 415.627 93.1071 416.228 99.304C416.828 105.502 410.733 113.498 409.589 113.989L405.972 115.319C405.972 115.319 409.962 106.092 408.306 103.627C406.65 101.162 405.449 101.135 405.449 101.135L400.321 86.5652Z" fill="#263238"/>
<path d="M393.835 88.0343C397.809 85.2242 402.502 86.8307 405.288 88.0343C408.425 89.8454 410.639 92.911 411.37 96.4599C411.977 99.7911 412.713 103.829 411.01 105.934C410.062 107.146 408.647 107.902 407.113 108.021L387.868 95.8184C389.163 92.7582 391.216 90.0793 393.835 88.0343Z" fill="#263238"/>
<path d="M401.598 133.156C403.102 134.232 404.18 133.585 405.744 132.586C415.145 127.134 411.283 122.82 411.283 122.82C408.966 120.928 408.395 118.265 408.346 114.054C408.339 113.933 408.322 113.812 408.296 113.693C408.19 113.15 407.919 112.652 407.519 112.269C406.454 111.193 404.718 111.183 403.642 112.247L403.639 112.25L399.37 114.358C399.369 114.422 399.367 114.486 399.367 114.559C399.761 116.794 400.141 118.517 400.373 119.883C400.37 120.051 400.432 120.221 400.453 120.382C400.45 120.55 400.495 120.727 400.525 120.888C400.757 122.777 398.096 126.095 396.926 126.982C396.228 127.57 396.497 129.533 401.598 133.156Z" fill="#EEC1BB"/>
<path opacity="0.2" d="M399.379 114.293C399.389 114.363 399.387 114.433 399.375 114.502C399.769 116.737 400.149 118.46 400.382 119.826C400.42 119.99 400.447 120.156 400.461 120.325C400.484 120.501 400.494 120.678 400.492 120.854C403.745 119.3 406.443 116.786 408.224 113.651C408.123 113.114 407.866 112.62 407.487 112.227C406.433 111.141 404.699 111.111 403.608 112.161L399.379 114.293Z" fill="black"/>
<path d="M408.929 97.8695C410.159 105.603 410.848 108.838 407.952 113.687C403.585 120.972 394.053 120.977 390.553 113.805C387.457 107.338 385.931 95.8075 392.548 90.9501C399.165 86.0934 407.69 90.1279 408.929 97.8695Z" fill="#EEC1BB"/>
<path d="M413.54 103.845C413.064 105.65 411.869 107.025 410.621 107.724C408.743 108.775 406.825 105.818 406.966 103.612C407.093 101.628 408.747 99.8883 410.815 99.754C412.852 99.6212 414.085 101.782 413.54 103.845Z" fill="#EEC1BB"/>
<path opacity="0.2" d="M409.173 104.593C409.026 103.859 409.181 103.069 409.596 102.445C410.009 101.821 410.677 101.371 411.411 101.222" stroke="black" stroke-width="0.5" stroke-miterlimit="10" stroke-linecap="round" stroke-linejoin="round"/>
<path d="M399.498 103.013C399.678 103.829 399.421 104.608 398.923 104.754C398.425 104.9 397.876 104.357 397.695 103.542C397.514 102.727 397.772 101.947 398.269 101.801C398.767 101.655 399.317 102.197 399.498 103.013Z" fill="#263238"/>
<path d="M391.985 105.024C392.159 105.814 391.897 106.573 391.401 106.719C390.905 106.864 390.362 106.341 390.188 105.551C390.015 104.76 390.276 104.002 390.773 103.856C391.269 103.71 391.812 104.233 391.985 105.024Z" fill="#263238"/>
<path d="M400.326 99.7779C400.232 99.8149 400.126 99.8134 400.032 99.7647C398.565 98.9966 397.348 99.7354 397.335 99.7439C397.154 99.8535 396.926 99.7972 396.827 99.6096C396.729 99.422 396.797 99.1788 396.979 99.0653C397.042 99.0267 398.569 98.0972 400.389 99.0514C400.571 99.1464 400.638 99.3834 400.54 99.581C400.491 99.6744 400.414 99.7431 400.326 99.7779Z" fill="#263238"/>
<path d="M388.427 101.888C388.343 101.884 388.264 101.844 388.207 101.77C388.091 101.616 388.117 101.374 388.264 101.229C389.738 99.7802 391.23 100.174 391.293 100.192C391.471 100.242 391.566 100.448 391.506 100.653C391.447 100.858 391.254 100.984 391.077 100.935C391.019 100.919 389.857 100.632 388.685 101.785C388.608 101.859 388.515 101.894 388.427 101.888Z" fill="#263238"/>
<path d="M393.927 104.099C393.927 104.099 393.508 107.272 392.645 109.411C392.495 109.784 392.763 110.198 393.164 110.234C394.198 110.325 395.213 109.714 395.213 109.714L393.927 104.099Z" fill="#D4827D"/>
<path d="M398.565 101.756L396.706 101.817C396.706 101.817 398.015 102.861 398.565 101.756Z" fill="#263238"/>
<path d="M390.957 103.825L389.098 103.886C389.098 103.886 390.407 104.929 390.957 103.825Z" fill="#263238"/>
<path d="M406.603 100.233C406.603 100.233 401.286 96.0067 400.367 91.7314C400.367 91.7314 383.988 91.1061 387.915 104.43C387.915 104.43 382.371 93.2993 394.884 89.0379C407.398 84.7765 413.112 101.092 408.349 108.009C408.315 107.953 409.9 102.887 406.603 100.233Z" fill="#263238"/>
<path d="M389.342 91.7855C387.945 93.7186 387.2 96.0461 387.215 98.4309C387.52 100.107 390.023 100.903 390.023 100.903L392.144 96.7409L392.729 99.9509C397.2 98.6192 399.397 95.7157 400.322 91.9345L396.951 87.8552C396.949 87.8545 390.617 90.1975 389.342 91.7855Z" fill="#263238"/>
<path d="M398.408 111.099C398.92 111.182 399.468 111.009 399.84 110.646C400.212 110.283 400.398 109.74 400.328 109.225" stroke="#263238" stroke-width="0.5" stroke-miterlimit="10" stroke-linecap="round" stroke-linejoin="round"/>
<path opacity="0.2" d="M413.669 108.593C413.669 108.593 419.442 101.432 414.922 95.3297C414.922 95.3297 418.252 97.621 417.619 101.576C417.122 104.681 415.769 107.198 413.669 108.593Z" fill="black"/>
<path opacity="0.2" d="M431.033 239.28C424.243 241.572 417.166 242.905 410.008 243.239C409.477 238.509 408.84 233.3 408.163 227.913C406.194 232.654 403.934 237.686 401.339 242.979C394.717 242.378 388.273 240.51 382.355 237.478C383.679 226.955 385.637 215.515 387.565 205.45C390.196 203.906 393.039 202.758 396.004 202.043C398.823 201.365 401.711 201.015 404.611 201.001C408.833 200.982 413.049 201.369 417.196 202.157C422.584 203.166 427.853 204.731 432.919 206.825C433.266 217.678 432.636 228.54 431.033 239.28Z" fill="black"/>
<path d="M392.909 174.963H425.865L426.762 179.214C426.762 179.214 438.869 195.968 432.731 237.748C432.731 237.748 406.215 240.812 381.241 235.456C381.241 235.456 386.846 192.53 392.702 178.516L392.909 174.963Z" fill="#263238"/>
<path d="M424.201 162.007L426.544 179.532L390.416 178.076C390.321 174.311 393.679 164.32 393.291 161.588C392.194 158.213 386.645 153.119 385.167 149.042C383.591 143.379 386.845 127.809 387.905 127.315C389.191 126.717 390.795 126.771 391.781 126.337C395.615 125.435 404.34 122.319 408.249 121.832C409.006 121.761 409.757 121.625 410.504 121.538C410.504 121.538 425.286 120.826 425.94 126.841C426.005 127.175 422.417 142.952 424.201 162.007Z" fill="#0F9D58"/>
<path opacity="0.2" d="M423.916 158.289L423.622 153.489L418.145 138.578L422.436 156.133L408.84 160.896L423.916 158.289Z" fill="black"/>
<path opacity="0.2" d="M408.181 173.93C408.664 173.867 412.954 169.207 412.954 169.207L425.226 169.672L424.633 165.234C424.998 164.947 410.294 165.617 410.294 165.617L408.182 170.197L408.181 173.93Z" fill="black"/>
<path d="M420.359 122.936C420.992 123.015 423.561 121.56 428.2 127.517C432.838 133.475 438.038 156.186 438.332 159.5C438.704 163.708 435.9 165.782 433.104 166.244C424.713 167.629 409.228 167.908 409.228 167.908V160.775L424.679 157.277C424.679 157.277 415.91 136.169 417.295 130.73C418.678 125.293 420.359 122.936 420.359 122.936Z" fill="#0F9D58"/>
<path d="M413.41 121.518C412.294 127.582 407.759 132.342 401.787 133.88C399.693 134.384 397.352 133.225 395.696 131.853C394.018 130.453 392.901 128.495 392.549 126.338C399.822 123.471 406.408 121.012 413.41 121.518Z" fill="#EEC1BB"/>
<path opacity="0.2" d="M424.678 157.278C424.678 157.278 427.189 157.136 428.255 158.505C428.255 158.505 427.613 155.881 424.333 156.432L424.678 157.278Z" fill="black"/>
<path d="M404.237 203.051V123.506H324.805V155.288C326.245 155.834 330.949 156.195 332.379 155.662C334.886 154.728 333.25 151.839 335.671 150.7C339.242 149.018 343.691 151.388 345.563 154.863C347.016 157.559 347.288 158.971 347.155 161.3C347.288 163.629 347.016 165.041 345.563 167.737C343.691 171.213 339.242 173.582 335.671 171.9C333.251 170.761 335.219 167.944 332.712 167.01C331.281 166.477 326.245 166.765 324.805 167.312V203.051H360.326C360.368 203.827 360.279 204.603 360.005 205.339C359.071 207.846 356.406 209.338 355.267 211.758C353.585 215.329 355.955 219.778 359.43 221.65C362.126 223.103 363.538 223.375 365.867 223.242C368.196 223.375 369.608 223.103 372.304 221.65C375.779 219.778 378.149 215.329 376.467 211.758C375.328 209.338 372.663 207.846 371.729 205.339C371.455 204.603 371.366 203.827 371.409 203.051L404.237 203.051Z" fill="#0F9D58"/>
<path d="M408.181 203.051V123.506H328.749V155.288C330.188 155.834 331.765 155.971 333.195 155.438C335.702 154.504 337.194 151.839 339.614 150.7C343.186 149.018 347.635 151.388 349.507 154.863C350.959 157.559 351.232 158.971 351.098 161.3C351.232 163.629 350.959 165.041 349.507 167.737C347.635 171.213 343.186 173.582 339.614 171.9C337.194 170.761 335.702 168.096 333.195 167.162C331.765 166.629 330.188 166.765 328.749 167.312V203.051H364.269C364.312 203.827 364.223 204.603 363.949 205.339C363.015 207.846 360.35 209.338 359.21 211.758C357.529 215.329 359.899 219.778 363.374 221.65C366.07 223.103 367.482 223.375 369.811 223.242C372.14 223.375 373.552 223.103 376.248 221.65C379.723 219.778 382.093 215.329 380.412 211.758C379.272 209.338 376.607 207.846 375.673 205.339C375.399 204.603 375.31 203.827 375.353 203.051L408.181 203.051Z" fill="#0F9D58"/>
<g opacity="0.3">
<path d="M408.181 203.051V123.506H328.749V155.288C330.188 155.834 331.765 155.971 333.195 155.438C335.702 154.504 337.194 151.839 339.614 150.7C343.186 149.018 347.635 151.388 349.507 154.863C350.959 157.559 351.232 158.971 351.098 161.3C351.232 163.629 350.959 165.041 349.507 167.737C347.635 171.213 343.186 173.582 339.614 171.9C337.194 170.761 335.702 168.096 333.195 167.162C331.765 166.629 330.188 166.765 328.749 167.312V203.051H364.269C364.312 203.827 364.223 204.603 363.949 205.339C363.015 207.846 360.35 209.338 359.21 211.758C357.529 215.329 359.899 219.778 363.374 221.65C366.07 223.103 367.482 223.375 369.811 223.242C372.14 223.375 373.552 223.103 376.248 221.65C379.723 219.778 382.093 215.329 380.412 211.758C379.272 209.338 376.607 207.846 375.673 205.339C375.399 204.603 375.31 203.827 375.353 203.051L408.181 203.051Z" fill="white"/>
</g>
<path d="M408.181 162.17C408.181 162.17 402.85 163.503 402.265 164.757C401.682 166.012 403.654 165.916 403.654 165.916C403.654 165.916 401.49 166.155 401.468 167.087C401.441 168.206 403.507 168.096 403.507 168.096C403.507 168.096 401.748 168.364 401.784 169.195C401.821 170.056 404.161 170.098 404.161 170.098C404.161 170.098 402.959 170.521 403.31 171.084C403.661 171.648 408.628 171.832 410.09 170.903C411.552 169.974 411.559 163.591 411.274 162.199C410.988 160.806 409.932 160.055 408.183 157.94V162.17H408.181Z" fill="#EEC1BB"/>
<path opacity="0.2" d="M403.659 166.02C403.662 166.02 403.665 166.019 403.668 166.019L407.421 165.422C407.471 165.413 407.506 165.361 407.498 165.304C407.49 165.247 407.441 165.206 407.393 165.214L403.64 165.812C403.59 165.82 403.555 165.873 403.563 165.93C403.569 165.984 403.612 166.022 403.659 166.02Z" fill="black"/>
<path opacity="0.2" d="M403.619 168.196H403.621L407.271 167.908C407.322 167.905 407.36 167.854 407.355 167.797C407.351 167.739 407.314 167.705 407.255 167.7L403.605 167.987C403.554 167.991 403.517 168.041 403.521 168.098C403.525 168.155 403.568 168.199 403.619 168.196Z" fill="black"/>
<path opacity="0.2" d="M404.29 170.197L407.008 170.061C407.059 170.058 407.098 170.009 407.096 169.952C407.093 169.894 407.049 169.849 406.998 169.852L404.28 169.987C404.229 169.99 404.191 170.039 404.194 170.096C404.195 170.154 404.239 170.199 404.29 170.197Z" fill="black"/>
<path d="M347.211 160.065C347.211 160.065 352.921 161.661 353.505 162.915C354.089 164.17 352.116 164.074 352.116 164.074C352.116 164.074 354.28 164.313 354.303 165.245C354.33 166.364 352.264 166.254 352.264 166.254C352.264 166.254 354.022 166.521 353.987 167.353C353.95 168.214 351.609 168.256 351.609 168.256C351.609 168.256 352.812 168.678 352.461 169.242C352.109 169.806 347.142 169.991 345.68 169.061C344.218 168.132 344.212 161.749 344.497 160.357C344.781 158.964 344.898 159.194 346.647 157.079L346.966 158.263C347.053 158.585 347.111 158.914 347.139 159.246L347.211 160.065Z" fill="#EEC1BB"/>
<path opacity="0.2" d="M352.112 164.178C352.108 164.178 352.106 164.177 352.102 164.177L348.35 163.58C348.299 163.571 348.265 163.519 348.272 163.462C348.28 163.405 348.33 163.364 348.377 163.372L352.13 163.97C352.18 163.978 352.215 164.031 352.207 164.088C352.2 164.143 352.158 164.18 352.112 164.178Z" fill="black"/>
<path opacity="0.2" d="M352.152 166.354H352.149L348.499 166.067C348.449 166.063 348.411 166.013 348.415 165.956C348.419 165.898 348.456 165.863 348.515 165.859L352.165 166.146C352.216 166.15 352.254 166.2 352.249 166.258C352.244 166.313 352.201 166.357 352.152 166.354Z" fill="black"/>
<path opacity="0.2" d="M351.48 168.355L348.762 168.219C348.711 168.217 348.672 168.167 348.675 168.11C348.678 168.052 348.721 168.007 348.772 168.01L351.49 168.145C351.541 168.148 351.58 168.197 351.577 168.255C351.574 168.312 351.531 168.358 351.48 168.355Z" fill="black"/>
<path d="M230.196 337.177L238.079 337.949L243.906 317.989L231.912 316.684L230.196 337.177Z" fill="#EEC1BB"/>
<path d="M239.221 334.468H236.407C235.77 334.468 235.181 334.789 234.805 335.304C233.181 337.52 231.961 336.682 230.197 334.599C229.074 334.468 228.772 335.756 228.68 336.102L226.576 343.755C226.393 344.395 226.763 345.061 227.402 345.244C227.515 345.276 227.633 345.292 227.752 345.29C231.17 345.29 232.787 345.29 237.041 345.29H250.052C253.598 345.29 254.333 341.716 252.872 341.385C246.303 339.933 241.651 338 239.62 336.09C239.244 335.754 239.63 335.504 239.221 334.468Z" fill="#263238"/>
<path d="M245.328 336.644C245.625 336.431 245.802 336.089 245.806 335.725C245.831 335.529 245.742 335.337 245.577 335.229C244.695 334.604 241.176 336.248 240.781 336.441C240.737 336.457 240.702 336.492 240.686 336.536C240.657 336.617 240.7 336.706 240.781 336.736C241.645 336.94 242.529 337.054 243.418 337.075C244.084 337.139 244.754 336.988 245.328 336.644ZM245.356 335.495C245.428 335.539 245.464 335.624 245.448 335.707C245.433 335.97 245.306 336.215 245.099 336.377C244.3 336.975 242.37 336.717 241.332 336.524C242.792 335.881 244.869 335.155 245.356 335.495Z" fill="#0F9D58"/>
<path d="M240.9 336.773C241.957 336.332 244.171 334.595 244.052 333.676C244.033 333.483 243.896 333.254 243.418 333.189C241.489 332.968 240.661 336.433 240.661 336.58C240.642 336.639 240.66 336.704 240.707 336.745C240.743 336.756 240.781 336.756 240.818 336.745L240.9 336.773ZM243.353 333.474C243.711 333.511 243.711 333.639 243.711 333.685C243.812 334.246 242.204 335.689 241.055 336.295C241.294 335.487 242.002 333.465 243.224 333.465L243.353 333.474Z" fill="#0F9D58"/>
<path d="M241.175 336.64C240.206 336.773 239.306 337.352 238.785 338.18" stroke="#0F9D58" stroke-width="0.5" stroke-miterlimit="10" stroke-linecap="round" stroke-linejoin="round"/>
<path d="M242.925 337.956C241.955 338.088 241.056 338.668 240.534 339.496" stroke="#0F9D58" stroke-width="0.5" stroke-miterlimit="10" stroke-linecap="round" stroke-linejoin="round"/>
<path d="M245.101 339.064C244.131 339.196 243.232 339.776 242.711 340.603" stroke="#0F9D58" stroke-width="0.5" stroke-miterlimit="10" stroke-linecap="round" stroke-linejoin="round"/>
<path opacity="0.3" d="M240.826 328.538L240.111 330.986L230.833 329.561L231.002 327.554L240.826 328.538Z" fill="black"/>
<path d="M276.087 337.177L283.97 337.949L289.796 317.989L277.803 316.684L276.087 337.177Z" fill="#EEC1BB"/>
<path d="M285.112 334.468H282.297C281.66 334.468 281.071 334.789 280.695 335.304C279.072 337.52 277.852 336.682 276.087 334.599C274.964 334.468 274.662 335.756 274.57 336.102L272.466 343.755C272.283 344.395 272.653 345.061 273.292 345.244C273.405 345.276 273.524 345.292 273.642 345.29C277.06 345.29 278.677 345.29 282.931 345.29H295.942C299.488 345.29 300.223 341.716 298.762 341.385C292.193 339.933 287.541 338 285.51 336.09C285.134 335.754 285.521 335.504 285.112 334.468Z" fill="#263238"/>
<path d="M291.22 336.644C291.516 336.431 291.693 336.089 291.698 335.725C291.723 335.529 291.634 335.337 291.468 335.229C290.585 334.604 287.067 336.248 286.671 336.441C286.627 336.457 286.593 336.492 286.577 336.536C286.548 336.617 286.59 336.706 286.671 336.736C287.536 336.94 288.42 337.054 289.309 337.075C289.976 337.139 290.645 336.988 291.22 336.644ZM291.247 335.495C291.319 335.539 291.355 335.624 291.339 335.707C291.324 335.97 291.197 336.215 290.99 336.377C290.19 336.975 288.261 336.717 287.223 336.524C288.684 335.881 290.761 335.155 291.247 335.495Z" fill="#0F9D58"/>
<path d="M286.791 336.773C287.848 336.332 290.062 334.595 289.942 333.676C289.924 333.483 289.786 333.254 289.309 333.189C287.379 332.968 286.552 336.433 286.552 336.58C286.532 336.639 286.551 336.704 286.598 336.745C286.634 336.756 286.672 336.756 286.708 336.745L286.791 336.773ZM289.244 333.474C289.603 333.511 289.603 333.639 289.603 333.685C289.704 334.246 288.096 335.689 286.947 336.295C287.186 335.487 287.893 333.465 289.116 333.465L289.244 333.474Z" fill="#0F9D58"/>
<path d="M287.066 336.64C286.096 336.773 285.197 337.352 284.676 338.18" stroke="#0F9D58" stroke-width="0.5" stroke-miterlimit="10" stroke-linecap="round" stroke-linejoin="round"/>
<path d="M288.815 337.956C287.846 338.088 286.946 338.668 286.425 339.496" stroke="#0F9D58" stroke-width="0.5" stroke-miterlimit="10" stroke-linecap="round" stroke-linejoin="round"/>
<path d="M290.992 339.064C290.022 339.196 289.123 339.776 288.601 340.603" stroke="#0F9D58" stroke-width="0.5" stroke-miterlimit="10" stroke-linecap="round" stroke-linejoin="round"/>
<path opacity="0.3" d="M286.717 328.538L286.003 330.986L276.725 329.561L276.893 327.554L286.717 328.538Z" fill="black"/>
<path d="M292.937 186.765C292.937 186.765 299.471 215.62 302.585 240.754C303.534 248.414 303.716 258.658 302.039 266.2L289.444 328.811L273.596 327.224C276.087 300.221 279.557 266.916 280.552 252.747C277.065 236.142 269.637 216.041 262.334 196.052L292.937 186.765Z" fill="#0F9D58"/>
<g opacity="0.2">
<path d="M292.937 186.765C292.937 186.765 299.471 215.62 302.585 240.754C303.534 248.414 303.716 258.658 302.039 266.2L289.444 328.811L273.596 327.224C276.087 300.221 279.557 266.916 280.552 252.747C277.065 236.142 269.637 216.041 262.334 196.052L292.937 186.765Z" fill="black"/>
</g>
<path d="M240.861 257.789C241.219 256.227 241.792 253.055 242.494 248.871C242.474 248.867 242.45 248.861 242.429 248.857C242.944 243.324 243.896 217.662 245.647 201.294C246.991 190.868 249.656 183.812 252.339 180.358C252.477 180.18 252.604 180.019 252.72 179.875C253.165 179.319 253.436 179.013 253.436 179.013C253.946 179.14 254.453 179.259 254.958 179.37C255.147 179.411 255.334 179.451 255.52 179.491C274.464 183.452 291.134 178.473 291.134 178.473C292.878 182.78 294.181 191.962 295.453 201.485C293.471 203.66 284.775 206.481 274.8 208.35L271.955 221.217C270.458 229.194 268.536 237.018 266.903 244.063L265.197 251.779C265.093 252.286 264.991 252.788 264.895 253.28C264.029 257.716 243.432 329.187 243.432 329.187L230.012 328.401C230.014 328.4 236.008 278.934 240.861 257.789Z" fill="#0F9D58"/>
<path opacity="0.2" d="M240.861 257.789C241.219 256.227 241.792 253.055 242.494 248.871C242.474 248.867 242.45 248.861 242.429 248.857C242.944 243.324 243.896 217.662 245.647 201.294C246.991 190.868 249.656 183.812 252.339 180.358C252.477 180.18 252.604 180.019 252.72 179.875C253.165 179.319 253.436 179.013 253.436 179.013C253.946 179.14 254.453 179.259 254.958 179.37C255.147 179.411 255.334 179.451 255.52 179.491C274.464 183.452 291.134 178.473 291.134 178.473C292.878 182.78 294.181 191.962 295.453 201.485C293.471 203.66 284.775 206.481 274.8 208.35L271.955 221.217C270.458 229.194 268.536 237.018 266.903 244.063L265.197 251.779C265.093 252.286 264.991 252.788 264.895 253.28C264.029 257.716 243.432 329.187 243.432 329.187L230.012 328.401C230.014 328.4 236.008 278.934 240.861 257.789Z" fill="black"/>
<path opacity="0.2" d="M271.773 222.406C271.72 222.668 277.918 200.14 277.918 200.14C277.918 200.14 283.136 220.253 275.196 232.834L271.773 222.406Z" fill="black"/>
<path d="M258.436 120.762C258.436 120.762 261.588 123.186 265.646 126.683C266.491 127.412 267.422 128.042 268.407 128.565C271.067 129.977 273.49 130.785 274.147 129.503C274.293 129.221 274.406 128.916 274.488 128.596C275.046 126.449 274.817 123.431 273.082 122.05C271.126 120.493 270.182 119.161 270.535 117.052C270.72 115.857 271.153 114.624 271.658 113.425L270.119 111.624L262.066 103.497C262.267 108.924 262.678 117.816 258.436 120.762Z" fill="#EEC1BB"/>
<path opacity="0.2" d="M270.469 117.515C268.255 116.2 265.825 113.919 266.116 111.314C266.246 110.217 266.483 109.177 266.745 108.511L271.244 114.467C270.874 115.427 270.74 116.062 270.469 117.515Z" fill="black"/>
<path d="M259.786 94.7784C260.544 103.052 260.69 106.561 264.96 110.899C271.382 117.425 281.262 115.229 282.963 107.029C284.494 99.6467 282.997 87.3564 274.875 83.8793C266.873 80.454 259.028 86.5049 259.786 94.7784Z" fill="#EEC1BB"/>
<path d="M270.092 97.3878C270.135 98.1621 270.611 98.7998 271.155 98.8106C271.699 98.8221 272.105 98.2038 272.062 97.4287C272.019 96.6544 271.543 96.0167 270.999 96.0059C270.456 95.9943 270.049 96.6127 270.092 97.3878Z" fill="#263238"/>
<path d="M278.667 97.2705C278.71 98.0208 279.185 98.6384 279.727 98.65C280.27 98.6616 280.675 98.0625 280.631 97.3114C280.588 96.561 280.113 95.9434 279.571 95.9318C279.027 95.9202 278.623 96.5193 278.667 97.2705Z" fill="#263238"/>
<path d="M268.776 94.4234C268.882 94.435 268.989 94.4049 269.071 94.3292C270.345 93.1488 271.78 93.5634 271.797 93.568C272.01 93.6298 272.225 93.5093 272.274 93.2924C272.322 93.0755 272.186 92.8477 271.971 92.7829C271.896 92.7605 270.095 92.2386 268.513 93.7039C268.356 93.8498 268.353 94.1084 268.506 94.2813C268.58 94.3639 268.678 94.4126 268.776 94.4234Z" fill="#263238"/>
<path d="M281.314 94.0111C281.412 94.0351 281.515 94.0227 281.604 93.9671C281.786 93.8536 281.833 93.6027 281.711 93.4074C280.471 91.4489 278.63 91.33 278.551 91.3261C278.331 91.3145 278.156 91.4875 278.16 91.7137C278.164 91.9391 278.345 92.1313 278.565 92.1437C278.638 92.1475 280.065 92.261 281.05 93.8181C281.113 93.92 281.21 93.9864 281.314 94.0111Z" fill="#263238"/>
<path d="M263.311 99.9694C263.311 99.9694 265.864 96.1102 264.812 88.5955C264.636 87.3356 265.433 86.1429 266.682 85.9004C270.252 85.2072 275.024 80.7041 280.847 89.6477C280.847 89.6477 278.07 78.9355 261.812 83.2509C247.343 87.0916 257.249 99.3549 258.741 100.616C260.234 101.877 263.311 99.9694 263.311 99.9694Z" fill="#263238"/>
<path d="M257.283 101.522C258.26 103.219 259.848 104.284 261.304 104.649C263.494 105.198 264.625 101.677 263.877 99.4831C263.204 97.5083 261.053 96.2005 258.921 96.6313C256.821 97.0559 256.165 99.5819 257.283 101.522Z" fill="#EEC1BB"/>
<path d="M276.581 105.353C275.907 106.39 275.098 108.399 275.098 108.399C274.902 108.358 274.707 108.318 274.515 108.267C271.881 107.65 270.862 106.494 270.532 105.399C270.354 104.799 270.389 104.212 270.479 103.748C270.577 103.21 270.769 102.849 270.769 102.849C271.97 104.01 274.382 104.774 275.687 105.128C276.231 105.283 276.581 105.353 276.581 105.353Z" fill="#263238"/>
<path d="M275.686 105.13L275.226 106.017C272.746 105.43 271.079 104.684 270.478 103.75C270.576 103.212 270.768 102.851 270.768 102.851C271.969 104.011 274.381 104.775 275.686 105.13Z" fill="white"/>
<path d="M274.514 108.268C271.88 107.651 270.862 106.495 270.531 105.4C271.421 105.644 272.466 106.038 273.32 106.664C273.976 107.14 274.323 107.719 274.514 108.268Z" fill="#DC5753"/>
<path d="M276.442 97.0443C276.442 97.0443 277.737 100.142 279.197 102.072C279.452 102.41 279.294 102.902 278.897 103.048C277.876 103.424 276.68 103.084 276.68 103.084L276.442 97.0443Z" fill="#D4827D"/>
<path d="M270.833 95.9875L272.732 95.5389C272.732 95.5389 271.694 96.9548 270.833 95.9875Z" fill="#263238"/>
<path d="M279.375 95.952L281.274 95.5034C281.274 95.5034 280.235 96.9193 279.375 95.952Z" fill="#263238"/>
<path d="M282.295 93.1472C282.295 93.1472 287.306 87.2191 283.962 82.3331C282.706 80.4965 280.399 80.2232 278.363 79.3261C273.666 77.2564 269.858 76.838 263.863 82.7144C257.625 88.8279 256.496 90.8868 263.377 98.4185C263.377 98.4185 262.634 97.4334 265.178 95.193C267.722 92.9519 270.529 90.9586 269.166 88.7854C269.166 88.7854 271.281 89.6014 271.432 91.6133L275.152 90.5973C275.152 90.5973 274.99 89.1591 274.006 87.7208C274.006 87.7208 275.934 88.8565 276.56 90.5217L279.777 91.1277C279.777 91.1277 279.305 88.1756 278.396 87.1156C278.396 87.1141 281.343 90.1449 282.295 93.1472Z" fill="#263238"/>
<path opacity="0.2" d="M262.199 101.279C262.13 100.498 261.767 99.7463 261.2 99.2066C260.632 98.667 259.863 98.3428 259.079 98.3142" stroke="black" stroke-width="0.5" stroke-miterlimit="10" stroke-linecap="round" stroke-linejoin="round"/>
<path d="M301.536 169.937C301.07 169.578 300.628 169.181 300.215 168.749C299.863 168.381 299.619 167.906 299.704 167.906C299.685 167.854 299.663 167.802 299.639 167.752L299.491 167.408L299.128 166.481C298.884 165.816 298.649 165.091 298.415 164.356C297.925 162.895 297.467 161.375 297.02 159.843C296.115 156.768 295.252 153.657 294.379 150.534L292.776 143.987C292.544 142.926 292.185 141.38 291.707 139.617L291.706 139.612C290.403 134.803 288.225 128.388 285.378 125.838C280.959 122.456 278.138 126.627 276.319 130.964C274.573 135.127 278.883 146.502 278.883 146.502L284.133 146.122C284.797 148.542 285.493 150.95 286.179 153.407C287.074 156.613 288.138 159.76 289.204 162.907C289.747 164.486 290.311 166.066 290.929 167.657C291.291 168.464 291.621 169.26 291.994 170.103C292.176 170.519 292.378 170.959 292.601 171.398L292.995 172.134C293.16 172.442 293.345 172.736 293.548 173.013C294.327 174.014 295.285 174.823 296.36 175.388C297.188 175.852 298.06 176.214 298.959 176.468C300.595 176.942 302.285 177.146 303.975 177.074L304.923 172.491C303.794 171.647 302.548 170.768 301.536 169.937Z" fill="#263238"/>
<path opacity="0.5" d="M301.536 169.937C301.07 169.578 300.628 169.181 300.215 168.749C299.863 168.381 299.619 167.906 299.704 167.906C299.685 167.854 299.663 167.802 299.639 167.752L299.491 167.408L299.128 166.481C298.884 165.816 298.649 165.091 298.415 164.356C297.925 162.895 297.467 161.375 297.02 159.843C296.115 156.768 295.252 153.657 294.379 150.534L292.776 143.987C292.544 142.926 292.185 141.38 291.707 139.617L291.706 139.612C290.403 134.803 288.225 128.388 285.378 125.838C280.959 122.456 278.138 126.627 276.319 130.964C274.573 135.127 278.883 146.502 278.883 146.502L284.133 146.122C284.797 148.542 285.493 150.95 286.179 153.407C287.074 156.613 288.138 159.76 289.204 162.907C289.747 164.486 290.311 166.066 290.929 167.657C291.291 168.464 291.621 169.26 291.994 170.103C292.176 170.519 292.378 170.959 292.601 171.398L292.995 172.134C293.16 172.442 293.345 172.736 293.548 173.013C294.327 174.014 295.285 174.823 296.36 175.388C297.188 175.852 298.06 176.214 298.959 176.468C300.595 176.942 302.285 177.146 303.975 177.074L304.923 172.491C303.794 171.647 302.548 170.768 301.536 169.937Z" fill="white"/>
<g opacity="0.3">
<path d="M286.349 133.226C287.236 134.74 287.54 135.603 288.096 137.349C288.652 139.094 289.281 148.521 286.099 151.308V144.772C286.214 140.767 286.232 137.23 286.349 133.226Z" fill="black"/>
</g>
<path d="M247.2 145.148L242.271 128.343C245.389 123.691 260.816 120.115 260.816 120.115L268.722 122.889L270.979 120.671C270.979 120.671 274.885 121.542 278.23 122.633C282.694 124.089 285.109 125.26 286.173 127.737C286.173 127.737 288.036 133.226 286.915 144.537C286.607 147.647 286.957 163.817 287.825 169.159L293.085 185.81C274.515 200.271 248.521 186.767 248.521 186.767C249.356 184.213 252.138 176.373 252.515 173.877C252.243 170.693 252.622 165.783 251.273 160.209C251.013 159.131 247.651 146.194 247.2 145.148Z" fill="#263238"/>
<path opacity="0.5" d="M247.2 145.148L242.271 128.343C245.389 123.691 260.816 120.115 260.816 120.115L268.722 122.889L270.979 120.671C270.979 120.671 274.885 121.542 278.23 122.633C282.694 124.089 285.109 125.26 286.173 127.737C286.173 127.737 288.036 133.226 286.915 144.537C286.607 147.647 286.957 163.817 287.825 169.159L293.085 185.81C274.515 200.271 248.521 186.767 248.521 186.767C249.356 184.213 252.138 176.373 252.515 173.877C252.243 170.693 252.622 165.783 251.273 160.209C251.013 159.131 247.651 146.194 247.2 145.148Z" fill="white"/>
<path d="M303.616 163.246C304.194 156.253 309.587 150.618 316.548 149.733L315.123 152.107L317.842 150.492L305.373 166.131L303.616 163.246Z" fill="#0F9D58"/>
<path opacity="0.8" d="M303.616 163.246C304.194 156.253 309.587 150.618 316.548 149.733L315.123 152.107L317.842 150.492L305.373 166.131L303.616 163.246Z" fill="white"/>
<path d="M284.082 150.41L288.369 150.279L308.889 157.238L290.186 185.809L271.78 181.213C270.731 180.923 270.117 179.837 270.407 178.788C270.45 178.632 270.513 178.481 270.593 178.34L278.027 164.898C278.175 164.632 278.175 164.309 278.027 164.042L277.018 162.249C276.805 161.882 276.805 161.429 277.018 161.062L282.005 151.717C282.427 150.953 283.211 150.46 284.082 150.41Z" fill="#0F9D58"/>
<path d="M308.889 157.238L320.574 149.733L301.36 178.28L290.186 185.808L308.889 157.238Z" fill="#0F9D58"/>
<path opacity="0.2" d="M308.889 157.238L320.574 149.733L301.36 178.28L290.186 185.808L308.889 157.238Z" fill="black"/>
<path d="M306.594 170.514C306.594 170.514 302.053 169.324 301.055 170.103C300.057 170.882 301.423 171.621 301.423 171.621C301.423 171.621 299.86 170.918 299.394 171.667C298.834 172.567 300.269 173.335 300.269 173.335C300.269 173.335 298.963 172.823 298.585 173.514C298.192 174.23 299.737 175.236 299.737 175.236C299.737 175.236 298.728 175.08 298.691 175.685C298.653 176.289 301.885 178.5 303.314 178.351C304.742 178.201 307.836 173.008 308.319 171.757C308.802 170.505 308.753 169.53 307.836 168.659L306.594 170.514Z" fill="#EEC1BB"/>
<path opacity="0.2" d="M301.376 171.708C301.379 171.71 301.38 171.711 301.383 171.711L304.182 172.782C304.22 172.796 304.268 172.767 304.291 172.718C304.313 172.668 304.3 172.615 304.264 172.601L301.464 171.531C301.427 171.517 301.378 171.545 301.356 171.595C301.334 171.642 301.344 171.691 301.376 171.708Z" fill="black"/>
<path opacity="0.2" d="M300.296 173.463L300.298 173.464L302.878 174.745C302.914 174.762 302.964 174.738 302.988 174.689C303.014 174.64 303.005 174.597 302.969 174.569L300.389 173.288C300.353 173.27 300.303 173.295 300.279 173.343C300.253 173.391 300.262 173.445 300.296 173.463Z" fill="black"/>
<path opacity="0.2" d="M299.777 175.37L301.661 176.387C301.696 176.407 301.745 176.383 301.772 176.335C301.798 176.287 301.79 176.232 301.755 176.213L299.871 175.195C299.835 175.176 299.786 175.2 299.76 175.248C299.734 175.297 299.741 175.351 299.777 175.37Z" fill="black"/>
<path d="M273.893 121.382L270.466 118.063L268.722 122.889L261.108 116.821L257.247 121.056L266.809 127.719L268.722 123.488L273.893 127.367V121.382Z" fill="#263238"/>
<path opacity="0.3" d="M273.892 121.382C274.136 121.755 273.892 127.367 273.892 127.367L268.722 123.488L266.809 127.719L257.62 121.382L267.026 129.576L268.721 124.601L274.488 129.576L273.892 121.382Z" fill="black"/>
<path opacity="0.3" d="M278.785 147.409L252.447 172.786V167.771C252.447 167.771 276.155 146.053 276.442 146.022C276.73 145.991 278.785 147.409 278.785 147.409Z" fill="black"/>
<path opacity="0.3" d="M254.047 149.417L251.195 137.651L250.63 151.308L254.047 149.417Z" fill="black"/>
<path d="M258.774 104.433C258.774 105.307 259.483 106.016 260.357 106.016C261.231 106.016 261.94 105.307 261.94 104.433C261.94 103.559 261.231 102.85 260.357 102.85C259.482 102.85 258.774 103.558 258.774 104.433Z" fill="#0F9D58"/>
<path d="M242.271 128.343C242.271 128.343 238.71 131.81 237.511 143.638C236.651 152.127 234.476 170.434 241.073 172.785C247.671 175.136 276.442 147.628 276.442 147.628L271.772 139.61L250.63 151.307C250.63 151.307 252.785 131.915 249.059 130.144C245.333 128.372 242.271 128.343 242.271 128.343Z" fill="#263238"/>
<path opacity="0.5" d="M242.271 128.343C242.271 128.343 238.71 131.81 237.511 143.638C236.651 152.127 234.476 170.434 241.073 172.785C247.671 175.136 276.442 147.628 276.442 147.628L271.772 139.61L250.63 151.307C250.63 151.307 252.785 131.915 249.059 130.144C245.333 128.372 242.271 128.343 242.271 128.343Z" fill="white"/>
<path d="M273.578 139.016C273.578 139.016 276.354 133.458 277.671 133.213C278.988 132.969 280.05 133.408 280.05 133.408C280.05 133.408 289.02 128.123 289.617 129.514C289.94 130.267 287.948 131.925 283.672 134.364C283.672 134.364 286.134 135.271 285.142 136.713C285.142 136.713 286.955 137.545 285.987 139.346C285.987 139.346 286.82 140.937 285.773 141.953C284.727 142.969 279.799 145.774 276.945 146.192C274.091 146.611 272.426 141.064 272.426 141.064L273.578 139.016Z" fill="#EEC1BB"/>
<path d="M303.88 297.831C306.3 298.97 307.793 301.635 310.299 302.569C311.707 303.094 313.258 302.971 314.68 302.445V266.68H280.449C280.407 265.904 280.495 265.128 280.769 264.392C281.704 261.886 284.369 260.393 285.508 257.973C287.189 254.402 284.819 249.953 281.345 248.081C278.649 246.629 277.237 246.356 274.908 246.49C272.579 246.356 271.167 246.629 268.471 248.081C264.995 249.953 262.625 254.402 264.307 257.973C265.447 260.393 268.112 261.886 269.046 264.392C269.32 265.128 269.409 265.904 269.366 266.68H235.136V346.224H314.68V314.416C313.258 313.891 311.708 313.768 310.299 314.292C307.793 315.226 306.29 317.87 303.88 319.031C300.665 320.578 295.874 318.337 293.988 314.867C292.525 312.178 292.263 310.759 292.397 308.43C292.263 306.101 292.535 304.689 293.988 301.993C295.86 298.519 300.309 296.149 303.88 297.831Z" fill="#0F9D58"/>
<path opacity="0.4" d="M303.88 297.831C306.3 298.97 307.793 301.635 310.299 302.569C311.707 303.094 313.258 302.971 314.68 302.445V266.68H280.449C280.407 265.904 280.495 265.128 280.769 264.392C281.704 261.886 284.369 260.393 285.508 257.973C287.189 254.402 284.819 249.953 281.345 248.081C278.649 246.629 277.237 246.356 274.908 246.49C272.579 246.356 271.167 246.629 268.471 248.081C264.995 249.953 262.625 254.402 264.307 257.973C265.447 260.393 268.112 261.886 269.046 264.392C269.32 265.128 269.409 265.904 269.366 266.68H235.136V346.224H314.68V314.416C313.258 313.891 311.708 313.768 310.299 314.292C307.793 315.226 306.29 317.87 303.88 319.031C300.665 320.578 295.874 318.337 293.988 314.867C292.525 312.178 292.263 310.759 292.397 308.43C292.263 306.101 292.535 304.689 293.988 301.993C295.86 298.519 300.309 296.149 303.88 297.831Z" fill="black"/>
<path d="M307.78 297.831C310.2 298.97 311.693 301.635 314.199 302.569C315.607 303.094 317.158 302.971 318.58 302.445V266.68H284.349C284.307 265.904 284.396 265.128 284.67 264.392C285.604 261.886 288.269 260.393 289.408 257.973C291.09 254.402 288.72 249.953 285.245 248.081C282.549 246.629 281.137 246.356 278.808 246.49C276.479 246.356 275.067 246.629 272.371 248.081C268.895 249.953 266.525 254.402 268.207 257.973C269.347 260.393 272.012 261.886 272.946 264.392C273.22 265.128 273.309 265.904 273.266 266.68H239.036V346.224H318.58V314.416C317.158 313.891 315.607 313.768 314.199 314.292C311.693 315.226 310.19 317.87 307.78 319.031C304.566 320.578 299.775 318.337 297.888 314.867C296.425 312.178 296.163 310.759 296.297 308.43C296.163 306.101 296.436 304.689 297.888 301.993C299.76 298.519 304.209 296.149 307.78 297.831Z" fill="#0F9D58"/>
<path opacity="0.4" d="M305.372 319.584C305.372 319.584 308.127 324.52 312.858 324.109C317.588 323.697 318.58 321.641 318.58 321.641L318.514 314.853L307.959 318.894C307.231 319.491 306.36 319.696 305.372 319.584Z" fill="black"/>
<path d="M403.325 277.596L430.515 267.148L446.21 251.933C446.645 251.428 451.197 243.58 451.197 243.58L458.9 260.081C458.9 260.081 439.746 279.328 432.731 281.569C427.06 283.38 406.986 288.299 406.986 288.299L403.325 277.596Z" fill="#0F9D58"/>
<path opacity="0.4" d="M419.993 285.036C419.993 285.036 423.271 272.186 430.599 269.512C437.926 266.839 447.399 271.031 447.128 271.212C446.856 271.393 438.921 278.781 438.651 278.871C438.448 278.938 428.362 282.494 423.141 284.219L419.993 285.036Z" fill="black"/>
<path d="M370.63 267.09C370.587 267.865 370.676 268.641 370.95 269.377C371.884 271.884 374.549 273.376 375.688 275.796C377.37 279.367 375 283.817 371.525 285.689C368.829 287.141 367.417 287.413 365.088 287.28C362.759 287.413 361.347 287.14 358.651 285.689C355.176 283.817 352.806 279.367 354.488 275.796C355.627 273.376 358.292 271.884 359.226 269.377C359.5 268.641 359.589 267.865 359.547 267.09H324.092V302.829C322.652 303.376 321.076 303.512 319.645 302.979C317.138 302.045 315.646 299.38 313.226 298.241C309.655 296.559 305.206 298.929 303.334 302.404C301.881 305.1 301.609 306.512 301.742 308.841C301.609 311.17 301.882 312.582 303.334 315.278C305.206 318.753 309.655 321.123 313.226 319.441C315.646 318.302 317.138 315.637 319.645 314.703C321.075 314.17 322.652 314.306 324.092 314.853V346.635L403.362 346.989V267.444L370.63 267.09Z" fill="#263238"/>
<g opacity="0.4">
<path d="M370.63 267.09C370.587 267.865 370.676 268.641 370.95 269.377C371.884 271.884 374.549 273.376 375.688 275.796C377.37 279.367 375 283.817 371.525 285.689C368.829 287.141 367.417 287.413 365.088 287.28C362.759 287.413 361.347 287.14 358.651 285.689C355.176 283.817 352.806 279.367 354.488 275.796C355.627 273.376 358.292 271.884 359.226 269.377C359.5 268.641 359.589 267.865 359.547 267.09H324.092V302.829C322.652 303.376 321.076 303.512 319.645 302.979C317.138 302.045 315.646 299.38 313.226 298.241C309.655 296.559 305.206 298.929 303.334 302.404C301.881 305.1 301.609 306.512 301.742 308.841C301.609 311.17 301.882 312.582 303.334 315.278C305.206 318.753 309.655 321.123 313.226 319.441C315.646 318.302 317.138 315.637 319.645 314.703C321.075 314.17 322.652 314.306 324.092 314.853V346.635L403.362 346.989V267.444L370.63 267.09Z" fill="black"/>
</g>
<path d="M374.138 267.09C374.096 267.865 374.185 268.641 374.459 269.377C375.393 271.884 378.058 273.376 379.197 275.796C380.879 279.367 378.509 283.817 375.034 285.689C372.338 287.141 370.926 287.413 368.597 287.28C366.268 287.413 364.856 287.14 362.16 285.689C358.684 283.817 356.315 279.367 357.997 275.796C359.136 273.376 361.801 271.884 362.735 269.377C363.009 268.641 363.098 267.865 363.055 267.09H327.601V302.829C326.161 303.376 324.584 303.512 323.154 302.979C320.647 302.045 319.155 299.38 316.735 298.241C313.163 296.559 308.714 298.929 306.842 302.404C305.39 305.1 305.118 306.512 305.251 308.841C305.118 311.17 305.391 312.582 306.842 315.278C308.714 318.753 313.163 321.123 316.735 319.441C319.155 318.302 320.647 315.637 323.154 314.703C324.584 314.17 326.161 314.306 327.601 314.853V346.635L406.87 346.989V267.444L374.138 267.09Z" fill="#263238"/>
<path d="M429.974 320.71L442.442 319.955C440.447 330.94 438.396 338.066 439.269 343.705L434.243 347.065L429.589 342.488C429.589 342.488 428.73 333.51 429.974 320.71Z" fill="#E9B376"/>
<path d="M428.841 334.781L433.371 334.834C435.563 338.63 437.08 337.736 439.403 335.058C440.719 334.921 441.054 336.432 441.157 336.839L443.515 345.827C443.72 346.577 443.278 347.352 442.527 347.557C442.394 347.594 442.256 347.611 442.117 347.607C438.116 347.56 436.223 347.537 431.244 347.479L416.015 347.3C411.863 347.252 411.051 343.057 412.766 342.691C420.476 341.082 425.948 338.882 428.351 336.674C428.797 336.287 428.347 335.988 428.841 334.781Z" fill="#0F9D58"/>
<path d="M426.524 337.297C427.657 337.465 428.702 338.155 429.301 339.132" stroke="#263238" stroke-width="0.5" stroke-miterlimit="10" stroke-linecap="round" stroke-linejoin="round"/>
<path d="M424.458 338.814C425.591 338.982 426.636 339.672 427.235 340.649" stroke="#263238" stroke-width="0.5" stroke-miterlimit="10" stroke-linecap="round" stroke-linejoin="round"/>
<path d="M421.895 340.08C423.028 340.248 424.073 340.938 424.672 341.915" stroke="#263238" stroke-width="0.5" stroke-miterlimit="10" stroke-linecap="round" stroke-linejoin="round"/>
<path opacity="0.7" d="M442.527 347.557C442.394 347.594 442.256 347.611 442.117 347.607C438.117 347.56 436.223 347.537 431.244 347.479L416.015 347.3C413.768 347.274 412.507 346.034 412.088 344.843C412.721 344.855 442.981 345.445 443.381 345.315L443.542 345.986C443.65 346.683 443.225 347.367 442.527 347.557Z" fill="white"/>
<path d="M477.722 287.642C477.722 287.642 443.671 270.058 437.041 269.557C430.411 269.056 424.074 272.646 422.807 286.375C421.54 300.104 424.074 335.411 424.074 335.411L442.442 335.726L444.719 294.822C444.719 294.822 473.167 315.602 474.011 315.391C474.856 315.18 485.96 314.677 485.96 314.677L477.722 287.642Z" fill="#263238"/>
<path opacity="0.3" d="M477.722 287.642C477.722 287.642 443.671 270.058 437.041 269.557C430.411 269.056 424.074 272.646 422.807 286.375C421.54 300.104 424.074 335.411 424.074 335.411L442.442 335.726L444.719 294.822C444.719 294.822 473.167 315.602 474.011 315.391C474.856 315.18 485.96 314.677 485.96 314.677L477.722 287.642Z" fill="white"/>
<path opacity="0.4" d="M443.675 313.951C443.675 313.951 428.668 319.207 428.509 331.583C428.349 343.959 441.583 341.604 441.583 341.604L443.675 313.951Z" fill="black"/>
<path d="M490.756 346.196L487.38 333.923C499.18 332.646 507.064 335.551 512.549 332.962L517.489 337.074L514.226 343.197C514.226 343.197 505.528 346.152 490.756 346.196Z" fill="#E9B376"/>
<path d="M506.594 346.283L505.283 341.648C508.493 338.27 507.124 336.992 503.693 335.43C503.157 334.13 504.596 333.333 504.98 333.106L513.433 327.993C514.136 327.557 515.059 327.774 515.495 328.478C515.572 328.603 515.63 328.739 515.668 328.881C516.826 332.974 517.374 334.911 518.816 340.006L523.223 355.586C524.424 359.834 520.394 361.924 519.502 360.287C515.538 352.911 511.647 347.995 508.67 346.211C508.143 345.875 507.974 346.422 506.594 346.283Z" fill="#0F9D58"/>
<path d="M509.857 347.887C509.688 346.681 510.077 345.408 510.891 344.503" stroke="#263238" stroke-width="0.5" stroke-miterlimit="10" stroke-linecap="round" stroke-linejoin="round"/>
<path d="M512.027 349.536C511.857 348.33 512.246 347.057 513.06 346.152" stroke="#263238" stroke-width="0.5" stroke-miterlimit="10" stroke-linecap="round" stroke-linejoin="round"/>
<path d="M514.09 351.767C513.92 350.561 514.309 349.288 515.123 348.383" stroke="#263238" stroke-width="0.5" stroke-miterlimit="10" stroke-linecap="round" stroke-linejoin="round"/>
<path opacity="0.7" d="M515.495 328.478C515.573 328.603 515.631 328.739 515.669 328.881C516.827 332.974 517.375 334.911 518.817 340.006L523.224 355.586C523.874 357.885 522.99 359.544 521.902 360.33C521.725 359.682 513.205 328.653 512.952 328.284L513.587 327.918C514.266 327.598 515.09 327.824 515.495 328.478Z" fill="white"/>
<path d="M515.041 294.346L516.519 301.768C516.519 301.768 520.309 316.49 514.997 323.884C509.922 330.949 502.434 332.209 502.434 332.209L503.973 346.406L502.434 347.365C502.434 347.365 492.639 347.365 472.588 346.45C453.542 345.58 437.169 344.67 433.79 338.756C430.41 332.842 429.63 329.97 435.156 322.915C440.15 316.539 478.177 307.148 479.5 306.767L478.969 303.527L478.352 301.233L515.041 294.346Z" fill="#263238"/>
<path opacity="0.3" d="M515.041 294.346L516.519 301.768C516.519 301.768 520.309 316.49 514.997 323.884C509.922 330.949 502.434 332.209 502.434 332.209L503.973 346.406L502.434 347.365C502.434 347.365 492.639 347.365 472.588 346.45C453.542 345.58 437.169 344.67 433.79 338.756C430.41 332.842 429.63 329.97 435.156 322.915C440.15 316.539 478.177 307.148 479.5 306.767L478.969 303.527L478.352 301.233L515.041 294.346Z" fill="white"/>
<path opacity="0.4" d="M502.434 332.209C501.265 332.513 459.958 331.181 459.958 331.181C459.958 331.181 472.168 333.275 481.196 334.037C490.225 334.798 502.434 332.209 502.434 332.209Z" fill="black"/>
<path opacity="0.4" d="M479.5 306.767L503.286 302.619C503.286 302.619 486.141 302.341 479.5 306.767Z" fill="black"/>
<path d="M418.863 289.925C418.863 289.925 416.878 286.87 413.925 286.279C410.972 285.688 408.771 284.429 406.545 284.142C404.32 283.854 406.339 286.112 407.656 287.096C408.973 288.079 410.457 289.208 409.558 290.078C408.659 290.948 398.229 293.594 397.121 294.942C396.011 296.29 397.833 296.389 397.833 296.389C397.833 296.389 395.317 297.1 395.327 298.173C395.33 298.452 395.787 299.096 396.985 298.952C399.678 298.628 405.295 297.656 405.295 297.656C404.972 297.706 398.124 299.4 397.132 299.788C395.835 300.294 395.481 301.195 395.8 301.938C396.253 302.994 404.815 301.183 405.229 301.359C405.229 301.359 400.265 302.237 399.79 303.642C399.315 305.048 402.471 304.665 405.189 303.8C407.68 303.006 412.776 302.102 415.23 301.05C418.255 299.753 419.994 298.203 420.061 295.118C420.126 292.032 418.863 289.925 418.863 289.925Z" fill="#E9B376"/>
<path d="M415.599 289.859L423.216 286.813L425.847 295.051L416.915 298.237L415.599 289.859Z" fill="#E9B376"/>
<path d="M470.849 232.876C470.849 232.876 468.781 228.205 469.219 218.956C469.217 218.947 468.713 218.853 468.71 218.845C468.767 217.553 468.867 216.347 468.982 215.295C468.984 215.265 468.981 215.256 468.981 215.256L458.9 225.397C459.839 228.096 460.125 233.677 460.073 236.076C460.073 236.076 459.558 240.52 465.037 239.399C469.041 238.578 470.849 232.876 470.849 232.876Z" fill="#E9B376"/>
<path opacity="0.2" d="M459.627 229.333L466.069 226.17C465.958 228.435 464.684 231.393 459.995 232.731C459.995 232.731 459.9 230.249 459.627 229.333Z" fill="black"/>
<path d="M467.698 209.487C468.694 217.177 469.412 221.494 466.31 226.101C461.644 233.03 451.812 231.401 448.529 224.142C445.574 217.608 444.44 206.129 451.327 201.74C458.111 197.416 466.701 201.796 467.698 209.487Z" fill="#E9B376"/>
<path d="M464.736 198.668C461.175 194.5 454.545 198.149 452.025 200.854C451.649 201.259 458.468 203.185 458.064 203.12L460.218 204.906C460.496 204.785 461.07 207.429 461.556 209.718C462.003 211.821 463.006 213.757 464.473 215.33C465.702 216.647 467.347 218.225 469.195 219.506C471.6 217.701 470.865 213.052 471.173 210.141C471.632 205.804 471.531 197.683 464.736 198.668Z" fill="#263238"/>
<path d="M471.919 215.245C471.688 217.319 470.515 219.085 469.151 220.124C467.1 221.687 465.777 219.371 465.531 216.934C465.309 214.742 465.433 211.995 467.884 211.389C470.3 210.791 472.183 212.873 471.919 215.245Z" fill="#E9B376"/>
<path d="M457.241 213.776C457.391 214.554 457.098 215.26 456.589 215.352C456.078 215.446 455.543 214.891 455.394 214.113C455.244 213.334 455.536 212.629 456.046 212.536C456.555 212.443 457.09 212.998 457.241 213.776Z" fill="#263238"/>
<path d="M449.641 215.396C449.791 216.174 449.499 216.88 448.989 216.973C448.479 217.065 447.944 216.51 447.794 215.733C447.644 214.955 447.936 214.249 448.446 214.156C448.957 214.063 449.492 214.618 449.641 215.396Z" fill="#263238"/>
<path d="M452.04 214.487C452.04 214.487 450.322 218.826 449.836 220.551C451.107 221.321 452.885 220.511 452.885 220.511L452.04 214.487Z" fill="#D58745"/>
<path d="M458.436 209.744C458.328 209.814 458.185 209.826 458.061 209.763C456.582 209.008 455.385 209.665 455.373 209.672C455.194 209.772 454.967 209.711 454.865 209.534C454.763 209.357 454.825 209.132 455.002 209.031C455.065 208.995 456.565 208.171 458.399 209.109C458.582 209.203 458.655 209.425 458.561 209.606C458.532 209.664 458.488 209.71 458.436 209.744Z" fill="#263238"/>
<path d="M455.911 222.499C457.174 222.266 458.031 221.448 458.828 220.32" stroke="#263238" stroke-width="0.75" stroke-miterlimit="10" stroke-linecap="round" stroke-linejoin="round"/>
<path opacity="0.2" d="M469.778 213.477C469.385 213.082 468.728 213.036 468.222 213.269C467.715 213.502 467.347 213.967 467.108 214.47C466.821 215.074 466.694 215.755 466.747 216.422" stroke="black" stroke-width="0.5" stroke-miterlimit="10" stroke-linecap="round" stroke-linejoin="round"/>
<path d="M445.643 212.762C445.573 212.76 445.502 212.738 445.439 212.694C445.27 212.577 445.227 212.345 445.343 212.178C446.502 210.493 448.205 210.543 448.282 210.534C448.486 210.541 448.649 210.713 448.644 210.917C448.639 211.121 448.471 211.281 448.268 211.276C448.197 211.272 446.884 211.251 445.954 212.602C445.882 212.709 445.764 212.765 445.643 212.762Z" fill="#263238"/>
<path d="M464.736 198.668C464.736 198.668 460.001 192.818 451.812 194.748C445.226 196.3 441.79 201.119 441.662 205.729C441.607 207.71 442.046 209.183 442.566 210.22C442.958 211.003 444.085 210.886 444.336 210.046C444.408 209.808 444.494 209.574 444.594 209.345C444.62 209.396 444.649 209.448 444.679 209.498C445.158 210.302 446.435 210.006 446.455 209.07C446.461 208.774 446.495 208.479 446.556 208.187C446.56 208.194 446.564 208.201 446.569 208.208C447.008 208.913 448.108 208.699 448.283 207.887C449.058 204.304 453.425 201.612 457.371 203.214L460.218 204.905C463.482 202.999 464.736 198.668 464.736 198.668Z" fill="#263238"/>
<path opacity="0.4" d="M477.025 301.449L476.576 304.461L463.294 308.46L466.355 310.421L479.5 306.767L480.042 300.916L477.025 301.449Z" fill="black"/>
<path d="M486.948 233.822C480.985 229.998 470.475 231.816 470.475 231.816L451.197 243.58L464.379 274.565C464.379 274.565 469.88 287.743 472.848 296.519C473.583 298.694 474.989 301.726 477.266 301.43L513.881 294.81C515.671 294.486 516.801 292.701 516.316 290.949C512.782 278.181 492.29 237.247 486.948 233.822Z" fill="#0F9D58"/>
<path opacity="0.4" d="M490.39 251.056C490.39 251.056 484.523 262.102 474.22 271.732C470.06 275.622 467.17 281.23 467.17 281.23L464.587 274.631L490.39 251.056Z" fill="black"/>
<path d="M472.239 242.544L447.278 273.669L417.972 286.974L420.894 299.104C420.894 299.104 444.655 292.693 454.205 286.742C463.754 280.79 479.499 264.148 479.499 264.148C479.499 264.148 493.23 253.129 492.575 244.214C491.921 235.298 478.851 233.216 472.239 242.544Z" fill="#0F9D58"/>
<path d="M458.688 239.008C458.688 239.008 459.616 234.253 460.065 234.445C460.514 234.636 464.976 237.315 464.976 237.315L469.967 229.839L472.962 231.821L466.068 246.113L458.688 239.008Z" fill="#0F9D58"/>
<path opacity="0.4" d="M456.497 258.957L450.741 251.056L455.391 263.427L457.656 261.019L473.549 240.927L456.497 258.957Z" fill="black"/>
<path opacity="0.4" d="M458.688 239.008C458.94 239.098 463.073 241.885 462.848 241.93C462.622 241.976 464.587 238.597 464.587 238.597L468.969 240.263L472.566 231.557L469.026 241.586L464.875 239.579L462.848 243.254L458.688 239.008Z" fill="black"/>
<path d="M174.257 179.836C174.3 179.06 174.211 178.284 173.937 177.548C173.003 175.042 170.338 173.549 169.199 171.129C167.517 167.558 169.887 163.109 173.362 161.237C176.058 159.785 177.47 159.512 179.799 159.646C182.128 159.512 183.54 159.785 186.236 161.237C189.711 163.109 192.081 167.558 190.399 171.129C189.26 173.549 186.595 175.042 185.661 177.548C185.387 178.284 185.298 179.06 185.34 179.836H220.795V144.097C222.235 143.55 223.811 143.414 225.242 143.946C227.749 144.88 229.241 147.545 231.661 148.685C235.232 150.366 239.681 147.996 241.553 144.521C243.006 141.826 243.278 140.414 243.145 138.085C243.278 135.755 243.006 134.343 241.553 131.648C239.681 128.172 235.232 125.803 231.661 127.484C229.241 128.624 227.749 131.289 225.242 132.223C223.812 132.755 222.235 132.62 220.795 132.072V100.291L141.525 99.9362V179.481L174.257 179.836Z" fill="#263238"/>
<g opacity="0.4">
<path d="M174.257 179.836C174.3 179.06 174.211 178.284 173.937 177.548C173.003 175.042 170.338 173.549 169.199 171.129C167.517 167.558 169.887 163.109 173.362 161.237C176.058 159.785 177.47 159.512 179.799 159.646C182.128 159.512 183.54 159.785 186.236 161.237C189.711 163.109 192.081 167.558 190.399 171.129C189.26 173.549 186.595 175.042 185.661 177.548C185.387 178.284 185.298 179.06 185.34 179.836H220.795V144.097C222.235 143.55 223.811 143.414 225.242 143.946C227.749 144.88 229.241 147.545 231.661 148.685C235.232 150.366 239.681 147.996 241.553 144.521C243.006 141.826 243.278 140.414 243.145 138.085C243.278 135.755 243.006 134.343 241.553 131.648C239.681 128.172 235.232 125.803 231.661 127.484C229.241 128.624 227.749 131.289 225.242 132.223C223.812 132.755 222.235 132.62 220.795 132.072V100.291L141.525 99.9362V179.481L174.257 179.836Z" fill="black"/>
</g>
<path d="M176.661 179.836C176.703 179.06 176.614 178.284 176.34 177.548C175.406 175.042 172.741 173.549 171.602 171.129C169.92 167.558 172.29 163.109 175.765 161.237C178.461 159.785 179.873 159.512 182.202 159.646C184.531 159.512 185.943 159.785 188.639 161.237C192.115 163.109 194.484 167.558 192.802 171.129C191.663 173.549 188.998 175.042 188.064 177.548C187.79 178.284 187.701 179.06 187.743 179.836H223.198V144.097C224.638 143.55 226.215 143.414 227.645 143.946C230.153 144.88 231.644 147.545 234.064 148.685C237.635 150.366 242.085 147.996 243.957 144.521C245.409 141.826 245.681 140.414 245.548 138.085C245.681 135.755 245.408 134.343 243.957 131.648C242.085 128.172 237.635 125.803 234.064 127.484C231.644 128.624 230.152 131.289 227.645 132.223C226.215 132.755 224.638 132.62 223.198 132.072V100.291L143.929 99.9362V179.481L176.661 179.836Z" fill="#263238"/>
<path d="M123.956 137.258C123.956 137.258 118.168 157.766 121.87 161.336C125.573 164.905 138.53 162.525 137.869 162.261C137.208 161.996 141.175 137.334 141.439 138.228C141.703 139.123 123.956 137.258 123.956 137.258Z" fill="#B97964"/>
<path d="M131.158 322.424L131.14 340.215L139.4 340.857L142.304 324.144C138.525 321.415 134.808 320.764 131.158 322.424Z" fill="#B97964"/>
<path d="M131.066 338.358C130.253 340.706 130.199 350.313 130.199 350.313L147.709 350.333C148.75 346.859 147.139 344.487 145.098 344.173C144.22 344.039 143.188 343.063 142.435 342.211C142.429 342.1 141.359 336.763 140.697 336.509C140.697 336.509 140.241 335.953 139.853 336.508C139.464 337.061 139.127 338.865 139.127 338.865C136.395 335.191 133.716 335.681 131.066 338.358Z" fill="#263238"/>
<path d="M130.853 341.147C132.832 340.358 134.955 340.658 136.68 341.97C136.981 342.201 137.268 341.663 136.968 341.435C135.131 340.037 132.808 339.709 130.701 340.551C130.358 340.687 130.507 341.286 130.853 341.147Z" fill="white"/>
<path d="M147.657 348.929C147.657 348.929 147.657 348.929 147.657 348.929L130.405 348.908C130.247 348.908 130.119 348.77 130.119 348.598C130.119 348.428 130.247 348.289 130.406 348.289L147.658 348.309C147.816 348.309 147.944 348.448 147.944 348.619C147.943 348.79 147.815 348.929 147.657 348.929Z" fill="white"/>
<path d="M166.794 320.104L166.774 340.183L174.723 340.839L178.633 322.044C175.442 319.476 171.736 318.218 166.794 320.104Z" fill="#B97964"/>
<path d="M166.415 338.4C165.602 340.748 165.548 350.354 165.548 350.354L185.664 350.378C186.705 346.904 184.531 344.845 182.489 344.53C181.611 344.396 178.537 343.105 177.784 342.252C177.778 342.142 176.708 336.806 176.047 336.55C176.047 336.55 175.591 335.995 175.202 336.55C174.814 337.103 174.477 338.906 174.477 338.906C171.744 335.232 169.065 335.723 166.415 338.4Z" fill="#263238"/>
<path d="M166.202 341.189C168.181 340.399 170.304 340.7 172.029 342.011C172.33 342.241 172.617 341.704 172.317 341.476C170.48 340.078 168.157 339.75 166.05 340.591C165.707 340.728 165.856 341.327 166.202 341.189Z" fill="white"/>
<path d="M185.666 348.973L165.753 348.95C165.595 348.95 165.467 348.811 165.467 348.64C165.467 348.469 165.596 348.33 165.754 348.33L185.667 348.353C185.825 348.353 185.952 348.492 185.952 348.664C185.952 348.834 185.824 348.973 185.666 348.973Z" fill="white"/>
<path d="M127.732 331.192L145.335 332.129C149.285 319.33 153.188 273.438 153.592 259.66C154.073 243.197 159.968 201.88 154.757 193.283C149.545 184.685 125.97 191.532 125.97 191.532C125.97 191.532 128.907 241.841 127.733 257.886C126.715 271.791 125.14 312.667 127.732 331.192Z" fill="#263238"/>
<path d="M147.235 327.492L146.091 333.373L127.015 332.753L126.315 327.106L147.235 327.492Z" fill="#0F9D58"/>
<path d="M162.888 331.192L180.339 332.129C182.464 317.96 190.999 266.361 190.298 256.477C189.442 244.404 179.334 192.144 175.576 188.115C171.818 184.086 144.3 194.53 144.3 194.53C144.3 194.53 155.609 239.47 164.526 258.906C166.378 262.942 161.455 313.959 162.888 331.192Z" fill="#263238"/>
<path d="M182.335 327.932L181.445 333.373L162.051 332.129L161.661 326.433L182.335 327.932Z" fill="#0F9D58"/>
<path opacity="0.3" d="M155.31 234.149L150.185 217.022L141.093 214.055L148.201 219.565L153.918 250.784L155.31 234.149Z" fill="black"/>
<path d="M165.115 82.4533C165.115 83.1921 165.44 83.7495 165.906 83.8275C166.373 83.9055 166.801 83.2832 166.839 82.5313C166.878 81.7794 166.528 81.2351 166.061 81.1572C165.595 81.0792 165.206 81.74 165.115 82.4533Z" fill="#263238"/>
<path d="M165.413 82.35C165.673 84.7316 166.262 87.0661 167.164 89.2856C165.995 89.7149 164.696 89.6106 163.612 89.0008L165.413 82.35Z" fill="#A24E3F"/>
<path d="M163.78 80.081C163.684 80.0903 163.588 80.0679 163.507 80.0162C163.339 79.8502 163.338 79.5792 163.503 79.4109C163.504 79.4094 163.506 79.4078 163.507 79.4063C164.372 78.3294 165.707 77.7395 167.086 77.8245C167.314 77.8453 167.482 78.046 167.462 78.2745C167.462 78.2761 167.462 78.2769 167.462 78.2784C167.423 78.5085 167.215 78.6706 166.983 78.6544C165.891 78.605 164.841 79.0882 164.17 79.9506C164.071 80.0602 163.923 80.1096 163.78 80.081Z" fill="#263238"/>
<path d="M165.427 92.2664C165.33 92.6608 165.21 93.0499 165.068 93.4305C164.275 95.606 162.833 97.4959 160.928 98.8515C160.449 99.1966 159.944 99.5046 159.415 99.771C155.267 101.953 150.15 101.152 146.895 97.814C142.705 93.6552 142.814 88.851 142.337 80.7195C142.211 78.9717 142.5 77.2201 143.183 75.602C145.583 69.9231 152.211 67.2319 157.988 69.5919C157.989 69.5927 157.991 69.5935 157.992 69.5935C166.073 72.8428 167.188 84.937 165.427 92.2664Z" fill="#B97964"/>
<path opacity="0.2" d="M160.899 98.8515C160.42 99.1965 159.915 99.5046 159.386 99.7709C156.579 101.242 153.246 101.386 150.319 100.162C150.694 99.185 151.192 98.2578 151.802 97.4032C154.913 97.0195 158.07 97.5228 160.899 98.8515Z" fill="black"/>
<path d="M144.248 109.4C148.329 113.04 158.311 111.7 158.311 111.7C158.311 111.7 164.541 110.017 163.227 108.109C159.565 107.512 157.783 105.829 157.046 103.666C156.649 102.33 156.524 100.93 156.678 99.5463C156.737 98.7743 156.84 98.007 156.987 97.2465L144.646 88.2635C146.259 94.1941 148.24 105.104 144.248 109.4Z" fill="#B97964"/>
<path d="M160.899 84.869L162.681 85.5244L161.795 81.9431C161.795 81.9431 164.403 78.0291 161.795 74.6338C161.795 74.6338 169.001 72.4815 164.93 68.7628C163.417 67.3732 161.536 68.7628 156.56 66.639C153.863 65.4748 145.423 65.3868 145.006 68.7628C145.006 68.7628 138.925 68.7628 138.268 78.9393C137.879 84.9755 140.238 90.869 144.708 95.0262C144.708 95.0262 152.052 96.7285 155.655 93.8327C159.257 90.9354 160.899 84.869 160.899 84.869Z" fill="#263238"/>
<path d="M156.201 85.4457C156.515 86.9951 157.525 88.3222 158.948 89.0564C160.63 89.7612 161.744 87.4321 161.495 84.9856C161.266 82.8132 160.122 79.7599 158.32 80.1714C156.52 80.5829 155.614 83.254 156.201 85.4457Z" fill="#B97964"/>
<path d="M131.699 107.444C131.699 107.444 128.832 108.315 127.406 108.838C124.432 109.927 122.469 113.238 121.393 116.488C118.764 124.429 114.515 143.231 114.515 143.231L129.934 146.472L138.159 128.758L131.699 107.444Z" fill="#0F9D58"/>
<path opacity="0.5" d="M131.699 107.444C131.699 107.444 127.573 108.212 125.401 110.006C123.748 111.372 122.431 113.353 121.393 116.488C118.764 124.429 114.515 143.231 114.515 143.231L129.934 146.472L138.159 128.758L131.699 107.444Z" fill="white"/>
<path d="M169.043 108.356C164.495 107.866 150.505 104.706 131.699 107.444L127.299 176.979C127.299 176.979 126.734 187.617 125.068 196.746C144.18 204.952 166.788 202.605 179.573 195.707C179.424 195.997 179.006 188.409 178.351 177.294C177.195 157.709 175.304 127.171 172.865 109.49C172.798 109.054 169.496 108.404 169.043 108.356Z" fill="#0F9D58"/>
<g opacity="0.5">
<path d="M169.043 108.356C164.495 107.866 150.505 104.706 131.699 107.444L127.299 176.979C127.299 176.979 126.734 187.617 125.068 196.746C144.18 204.952 166.788 202.605 179.573 195.707C179.424 195.997 179.006 188.409 178.351 177.294C177.195 157.709 175.304 127.171 172.865 109.49C172.798 109.054 169.496 108.404 169.043 108.356Z" fill="white"/>
</g>
<path d="M144.041 106.72C144.585 105.104 145.341 103.967 146.311 103.309L156.784 104.116L161.694 107.353L144.041 106.72Z" fill="#0F9D58"/>
<path opacity="0.5" d="M144.041 106.72C144.585 105.104 145.341 103.967 146.311 103.309L156.784 104.116L161.694 107.353L144.041 106.72Z" fill="white"/>
<path opacity="0.2" d="M168.555 129.998C170.232 137.83 172.644 153.183 177.194 158.533L176.113 142.995L168.555 129.998Z" fill="black"/>
<path opacity="0.2" d="M128.953 146.256L129.359 126.174L125.144 145.301L128.953 146.256Z" fill="black"/>
<path d="M176.584 136.192C175.997 136.418 187.337 161.935 191.955 162.162C196.572 162.39 218.251 152.526 218.251 152.526L213.387 146.72L197.001 147.66L188.644 129.87L176.584 136.192Z" fill="#B97964"/>
<path d="M170.881 109.23C165 113.115 162.084 121.91 177.853 149.066L194.881 138.667C191.436 132.312 187.787 127.692 183.731 118.487C175.556 106.718 170.881 109.23 170.881 109.23Z" fill="#0F9D58"/>
<path opacity="0.5" d="M170.881 109.23C165 113.115 162.084 121.91 177.853 149.066L194.881 138.667C191.436 132.312 187.787 127.692 183.731 118.487C175.556 106.718 170.881 109.23 170.881 109.23Z" fill="white"/>
<path d="M225.887 146.548C225.887 145.059 225.429 143.44 224.627 143.39C223.825 143.341 219.543 143.386 219.543 143.386C219.543 142.184 221.797 140.869 221.063 140.048C220.105 138.978 214.555 143.553 214.204 144.487C213.517 146.319 213.174 146.777 213.174 146.777L216.107 153.51C216.107 153.51 221.535 157.086 222.795 155.826C224.055 154.566 223.941 153.22 223.941 153.22C223.941 153.22 225.201 151.473 225.087 150.328C224.971 149.182 225.887 148.037 225.887 146.548Z" fill="#B97964"/>
</svg>
