<svg width="307" height="41" viewBox="0 0 307 41" fill="none" xmlns="http://www.w3.org/2000/svg">
<g clip-path="url(#clip0_1_2)">
<path d="M93.4488 34.1476C92.0207 34.1576 90.6068 33.8626 89.301 33.282C88.0509 32.7222 86.9237 31.9192 85.9847 30.9193C85.038 29.9089 84.2911 28.7269 83.784 27.4364C82.7292 24.6974 82.7292 21.6618 83.784 18.9228C84.2911 17.6323 85.038 16.4504 85.9847 15.4399C86.9237 14.44 88.0509 13.637 89.301 13.0773C90.6068 12.4967 92.0207 12.2016 93.4488 12.2117C95.0289 12.2029 96.5865 12.5877 97.9821 13.3319C99.2828 13.9931 100.396 14.974 101.217 16.1833V2.08895H104.158V33.7199H101.217V30.1759C100.396 31.3852 99.2828 32.3661 97.9821 33.0274C96.5865 33.7715 95.0289 34.1564 93.4488 34.1476ZM93.7429 31.4081C94.7904 31.4185 95.8284 31.2092 96.7906 30.7936C97.7528 30.378 98.6181 29.7653 99.3309 28.9946C100.017 28.2429 100.551 27.3643 100.903 26.4079C101.663 24.3304 101.663 22.0492 100.903 19.9717C100.551 19.0121 100.017 18.1302 99.3309 17.3748C98.6447 16.6337 97.8195 16.0358 96.9027 15.6156C95.9858 15.1954 94.9954 14.9611 93.9882 14.9261C92.981 14.8911 91.9768 15.0561 91.0332 15.4116C90.0896 15.7672 89.2253 16.3063 88.4896 16.998C88.3646 17.1066 88.2493 17.2259 88.1448 17.3545C87.4531 18.1115 86.9156 18.9972 86.5627 19.9615C85.812 22.0407 85.812 24.3185 86.5627 26.3977C86.9185 27.3546 87.4558 28.2331 88.1448 28.9844C88.8561 29.7543 89.7196 30.3666 90.6801 30.7822C91.6406 31.1978 92.6769 31.4075 93.7227 31.3979L93.7429 31.4081ZM118.965 34.1476C117.531 34.1616 116.109 33.8809 114.787 33.3227C113.538 32.7924 112.413 32.0088 111.48 31.0211C110.543 30.0116 109.809 28.8287 109.32 27.5383C108.794 26.1463 108.529 24.6685 108.539 23.1796C108.534 21.7197 108.777 20.2695 109.259 18.8922C109.696 17.6034 110.386 16.4157 111.288 15.3992C112.213 14.3882 113.344 13.5893 114.604 13.0569C116.008 12.4731 117.517 12.1854 119.036 12.2117C120.574 12.1844 122.095 12.5339 123.468 13.23C124.708 13.8613 125.792 14.7624 126.642 15.8676C127.493 16.9897 128.114 18.2706 128.467 19.6356C128.843 21.0731 128.964 22.5659 128.822 24.0452H111.562C111.54 25.0785 111.755 26.103 112.19 27.0393C112.595 27.8963 113.156 28.6699 113.843 29.3204C114.514 29.9655 115.298 30.4801 116.156 30.8378C117.044 31.2036 117.995 31.3905 118.955 31.3878C120.266 31.4072 121.561 31.103 122.727 30.5018C123.952 29.8043 124.925 28.7346 125.506 27.4466H128.549C128.286 28.3563 127.89 29.2214 127.372 30.0129C126.825 30.8388 126.139 31.5625 125.344 32.1515C124.497 32.7802 123.556 33.2684 122.555 33.5976C121.393 33.9825 120.178 34.1785 118.955 34.1781L118.965 34.1476ZM118.965 14.9511C118.175 14.9541 117.389 15.0707 116.632 15.2973C115.849 15.5261 115.115 15.9028 114.472 16.4074C113.771 16.9669 113.185 17.6588 112.748 18.4441C112.23 19.3932 111.887 20.4281 111.734 21.4993H125.851C125.672 19.6272 124.83 17.8818 123.478 16.5805C122.231 15.4868 120.62 14.905 118.965 14.9511ZM129.695 12.6292H132.97L140.658 29.3714L148.325 12.6292H151.641L141.834 33.7199H139.522L129.695 12.6292ZM162.827 34.1476C161.393 34.1596 159.971 33.879 158.649 33.3227C157.404 32.7922 156.281 32.0086 155.353 31.0211C154.415 30.0116 153.681 28.8287 153.192 27.5383C152.666 26.1463 152.401 24.6685 152.412 23.1796C152.402 21.7236 152.642 20.2767 153.121 18.9024C153.577 17.6081 154.284 16.4174 155.2 15.3992C156.129 14.388 157.264 13.5891 158.527 13.0569C159.932 12.477 161.44 12.1894 162.959 12.2117C164.421 12.1589 165.874 12.4597 167.196 13.0889C168.518 13.7181 169.67 14.6571 170.555 15.8269C171.416 16.9594 172.04 18.2549 172.39 19.6356C172.766 21.0731 172.887 22.5659 172.745 24.0452H155.424C155.404 25.0771 155.616 26.1002 156.042 27.0393C156.442 27.9062 156.995 28.693 157.675 29.3612C158.354 30.0051 159.145 30.5193 160.008 30.8786C160.896 31.2433 161.847 31.4301 162.807 31.4285C164.119 31.4495 165.416 31.1415 166.579 30.5323C167.805 29.8366 168.779 28.7664 169.358 27.4772H172.401C172.138 28.3901 171.742 29.2585 171.224 30.0537C170.68 30.8788 169.993 31.5996 169.196 32.1821C168.35 32.8141 167.408 33.3057 166.407 33.6384C165.244 34.0149 164.028 34.2006 162.807 34.1883L162.827 34.1476ZM162.827 14.9511C162.037 14.9548 161.252 15.0714 160.494 15.2973C159.712 15.5284 158.979 15.9049 158.334 16.4074C157.633 16.9669 157.047 17.6588 156.61 18.4441C156.092 19.3931 155.749 20.428 155.596 21.4993H169.693C169.528 19.6296 168.696 17.8827 167.35 16.5805C166.099 15.4879 164.485 14.9064 162.827 14.9511ZM182.562 31.2452H183.191C183.475 31.2234 183.757 31.1756 184.033 31.1026V33.7606C183.668 33.8631 183.294 33.9346 182.917 33.9745H181.812C181.175 34.017 180.537 33.9197 179.941 33.6893C179.346 33.4589 178.807 33.101 178.364 32.6404C177.556 31.6698 177.136 30.4318 177.187 29.1677V2.08895H180.128V28.4548C180.128 30.2777 180.94 31.1943 182.562 31.1943V31.2452ZM196.203 34.1985C194.69 34.2114 193.19 33.9206 191.791 33.3431C190.494 32.7933 189.318 31.9902 188.333 30.9804C186.349 28.896 185.242 26.1239 185.242 23.2407C185.242 20.3575 186.349 17.5854 188.333 15.501C189.318 14.4912 190.494 13.6881 191.791 13.1384C194.621 11.9879 197.785 11.9879 200.614 13.1384C201.918 13.664 203.105 14.4466 204.103 15.4399C206.087 17.5243 207.194 20.2964 207.194 23.1796C207.194 26.0628 206.087 28.8349 204.103 30.9193C203.113 31.9358 201.93 32.7427 200.624 33.2921C199.225 33.8697 197.725 34.1605 196.213 34.1476L196.203 34.1985ZM196.203 31.459C197.322 31.471 198.431 31.2454 199.458 30.7971C200.402 30.3789 201.252 29.775 201.959 29.0211C202.667 28.2672 203.216 27.3787 203.576 26.4079C204.326 24.3531 204.326 22.0978 203.576 20.043C203.026 18.5303 202.02 17.2271 200.699 16.3145C199.378 15.402 197.806 14.9254 196.203 14.9511C195.077 14.9411 193.961 15.1666 192.927 15.613C191.984 16.0231 191.135 16.6227 190.432 17.3748C189.755 18.1394 189.232 19.0281 188.891 19.9921C188.141 22.0469 188.141 24.3022 188.891 26.357C189.25 27.3237 189.79 28.2122 190.483 28.9742C191.175 29.7281 192.014 30.3312 192.947 30.7462C193.977 31.1951 195.09 31.4174 196.213 31.3979L196.203 31.459ZM211.557 42.5899V12.6292H214.498V16.1732C215.317 14.9646 216.431 13.9865 217.733 13.3319C219.128 12.5865 220.686 12.2016 222.266 12.2117C223.694 12.2016 225.108 12.4967 226.414 13.0773C227.663 13.6395 228.789 14.4422 229.73 15.4399C230.674 16.4509 231.417 17.6329 231.921 18.9228C232.986 21.66 232.986 24.6992 231.921 27.4364C231.417 28.7264 230.674 29.9083 229.73 30.9193C228.791 31.9214 227.664 32.7278 226.414 33.2921C225.108 33.8728 223.694 34.1678 222.266 34.1578C220.688 34.1638 219.132 33.7828 217.733 33.0477C216.432 32.3865 215.319 31.4056 214.498 30.1963V42.5594L211.557 42.5899ZM221.972 31.4489C223.019 31.4637 224.058 31.2574 225.02 30.8434C225.983 30.4294 226.848 29.8168 227.56 29.0455C228.246 28.2938 228.78 27.4152 229.132 26.4588C229.892 24.3813 229.892 22.1001 229.132 20.0226C228.784 19.055 228.25 18.1657 227.56 17.4054C226.171 15.9189 224.25 15.0473 222.221 14.9824C220.192 14.9175 218.22 15.6645 216.739 17.0591C216.617 17.1712 216.496 17.2832 216.384 17.4054C215.701 18.1687 215.17 19.0574 214.822 20.0226C214.062 22.1001 214.062 24.3813 214.822 26.4588C215.178 27.4133 215.712 28.2912 216.394 29.0455C217.106 29.8168 217.971 30.4294 218.934 30.8434C219.897 31.2574 220.935 31.4637 221.982 31.4489H221.972ZM246.2 34.1985C244.766 34.2117 243.344 33.931 242.022 33.3736C240.774 32.8433 239.648 32.0597 238.716 31.0721C237.772 30.0474 237.039 28.8468 236.556 27.5383C236.031 26.1465 235.773 24.6676 235.795 23.1796C235.786 21.7236 236.026 20.2767 236.505 18.9024C236.96 17.6081 237.667 16.4174 238.584 15.3992C239.508 14.3918 240.635 13.5933 241.89 13.0569C243.295 12.477 244.803 12.1894 246.322 12.2117C247.86 12.1844 249.381 12.5339 250.754 13.23C251.991 13.862 253.072 14.7631 253.918 15.8676C254.773 16.9886 255.397 18.2696 255.754 19.6356C256.129 21.0696 256.25 22.559 256.109 24.0351H238.787C238.775 25.0673 238.99 26.0896 239.416 27.0291C239.814 27.8994 240.371 28.687 241.059 29.351C241.735 29.9982 242.526 30.5128 243.391 30.8684C244.274 31.2386 245.223 31.4257 246.18 31.4183C247.494 31.439 248.793 31.1348 249.963 30.5323C251.186 29.836 252.156 28.7657 252.731 27.4772H255.774C255.518 28.3905 255.124 29.2593 254.608 30.0537C254.057 30.8742 253.371 31.5941 252.579 32.1821C251.731 32.8101 250.79 33.3015 249.79 33.6384C248.628 34.0167 247.412 34.2058 246.19 34.1985H246.2ZM246.2 15.002C245.41 15.005 244.625 15.1216 243.868 15.3483C243.085 15.5793 242.352 15.9558 241.708 16.4583C241.006 17.0178 240.42 17.7097 239.984 18.4951C239.466 19.444 239.122 20.4789 238.969 21.5502H253.086C252.93 19.6656 252.102 17.9009 250.754 16.5805C249.497 15.4771 247.869 14.8946 246.2 14.9511V15.002ZM260.561 12.6801H263.502V17.0286C263.72 16.3211 264.064 15.6588 264.516 15.0733C265.266 14.0669 266.291 13.301 267.467 12.8689C268.643 12.4368 269.918 12.3571 271.138 12.6394V15.6945C270.529 15.4677 269.88 15.3653 269.23 15.3933C268.581 15.4212 267.944 15.5791 267.355 15.8575C266.63 16.1832 265.986 16.6667 265.469 17.273C264.853 17.9648 264.372 18.7661 264.049 19.6356C263.655 20.7529 263.47 21.9336 263.502 23.1185V33.7199H260.561V12.6801ZM281.422 34.1985C280.395 34.2047 279.372 34.0745 278.379 33.8115C277.459 33.5784 276.59 33.178 275.813 32.6302C275.059 32.0988 274.435 31.4024 273.988 30.5934C273.51 29.7293 273.229 28.7692 273.167 27.7827H276.108C276.247 28.4199 276.513 29.0225 276.888 29.5547C277.219 30.0166 277.644 30.4021 278.136 30.6851C278.629 30.9688 279.163 31.1749 279.718 31.2961C280.267 31.4213 280.828 31.4862 281.391 31.4896C282.487 31.5134 283.569 31.2427 284.525 30.7054C284.945 30.4718 285.291 30.1246 285.524 29.7034C285.757 29.2821 285.868 28.8037 285.843 28.3224C285.859 27.8988 285.789 27.4765 285.637 27.0809C285.485 26.6854 285.255 26.3248 284.961 26.0209C284.135 25.2927 283.136 24.791 282.061 24.5646L279.333 23.8517C277.783 23.5166 276.37 22.7218 275.276 21.5706C274.354 20.5137 273.865 19.1457 273.907 17.7415C273.892 16.9359 274.073 16.1389 274.434 15.4196C274.782 14.7406 275.278 14.1489 275.884 13.6883C276.56 13.1836 277.324 12.8105 278.136 12.5885C279.022 12.3308 279.941 12.2039 280.864 12.2117C281.879 12.1998 282.887 12.3652 283.846 12.7005C284.657 12.9961 285.412 13.4302 286.077 13.9836C287.278 15.0206 288.042 16.4763 288.217 18.0572H285.316C285.038 17.0966 284.449 16.2562 283.643 15.6682C282.837 15.0801 281.86 14.7777 280.864 14.8085C279.877 14.7797 278.904 15.0532 278.075 15.5927C277.713 15.8143 277.416 16.1277 277.213 16.5013C277.01 16.8749 276.909 17.2956 276.919 17.7211C276.898 18.4755 277.175 19.2076 277.69 19.7579C278.451 20.4294 279.374 20.8893 280.367 21.0919L283.592 21.927C285.084 22.2409 286.441 23.0133 287.476 24.1369C288.406 25.2332 288.894 26.6388 288.845 28.078C288.88 29.0305 288.685 29.9773 288.277 30.8378C287.915 31.5772 287.375 32.2142 286.705 32.6913C285.988 33.1894 285.188 33.5549 284.342 33.7708C283.389 34.0204 282.407 34.1471 281.422 34.1476V34.1985Z" fill="black"/>
<path d="M60.4179 25.7459C59.9566 25.7459 59.5056 25.6086 59.122 25.3512C58.7385 25.0938 58.4395 24.728 58.2629 24.3C58.0864 23.872 58.0402 23.4011 58.1302 22.9467C58.2202 22.4923 58.4424 22.075 58.7686 21.7474C59.0948 21.4198 59.5104 21.1968 59.9629 21.1064C60.4153 21.016 60.8843 21.0624 61.3106 21.2397C61.7368 21.417 62.1011 21.7172 62.3574 22.1024C62.6137 22.4875 62.7505 22.9404 62.7505 23.4037C62.7505 24.0249 62.5047 24.6206 62.0673 25.0599C61.6299 25.4992 61.0366 25.7459 60.4179 25.7459ZM34.6382 25.7459C34.1769 25.7459 33.7259 25.6086 33.3423 25.3512C32.9587 25.0938 32.6598 24.728 32.4832 24.3C32.3067 23.872 32.2605 23.4011 32.3505 22.9467C32.4405 22.4923 32.6626 22.075 32.9888 21.7474C33.3151 21.4198 33.7307 21.1968 34.1832 21.1064C34.6356 21.016 35.1046 21.0624 35.5308 21.2397C35.9571 21.417 36.3213 21.7172 36.5777 22.1024C36.834 22.4875 36.9708 22.9404 36.9708 23.4037C36.9708 24.0249 36.725 24.6206 36.2876 25.0599C35.8501 25.4992 35.2568 25.7459 34.6382 25.7459ZM61.2597 11.6515L65.9248 3.5045C66.001 3.29411 66.006 3.06437 65.9391 2.85082C65.8722 2.63726 65.7371 2.45179 65.5547 2.3231C65.3723 2.19441 65.1527 2.12966 64.9299 2.13888C64.7072 2.1481 64.4937 2.23077 64.3224 2.3741C64.2874 2.4203 64.26 2.47188 64.2413 2.52685L59.5255 10.7757C55.7532 9.07921 51.6665 8.20221 47.5331 8.20221C43.3998 8.20221 39.3131 9.07921 35.5408 10.7757L30.8149 2.56759C30.6702 2.4022 30.4761 2.28834 30.2615 2.24305C30.047 2.19777 29.8236 2.22351 29.6249 2.31641C29.4262 2.40931 29.2628 2.56437 29.1592 2.75837C29.0556 2.95236 29.0173 3.17484 29.0502 3.39248C29.0707 3.44879 29.1016 3.50065 29.1415 3.54524L33.7965 11.6923C29.7768 13.8927 26.367 17.0648 23.8755 20.9216C21.384 24.7784 19.8896 29.1982 19.5274 33.781H75.5389C75.1813 29.1903 73.688 24.7619 71.1945 20.8976C68.7009 17.0332 65.2861 13.8551 61.2597 11.6515Z" fill="#3DDC84"/>
</g>
<defs>
<clipPath id="clip0_1_2">
<rect width="307" height="41" fill="white"/>
</clipPath>
</defs>
</svg>
